<svg width="251" height="240" viewBox="0 0 251 240" fill="none" xmlns="http://www.w3.org/2000/svg">
<path d="M165.313 5.22371L171.136 24.9945C172.943 31.0081 175.999 36.4721 180.061 40.95C184.124 45.4279 189.08 48.7954 194.533 50.7834L212.473 57.2075L212.824 57.3183C214.207 57.8551 215.404 58.8519 216.251 60.1712C217.098 61.4905 217.553 63.0673 217.553 64.6839C217.553 66.3005 217.098 67.8772 216.251 69.1965C215.404 70.5159 214.207 71.5127 212.824 72.0495L194.901 78.4736C189.445 80.4591 184.486 83.8255 180.42 88.3035C176.355 92.7816 173.296 98.2469 171.488 104.262L165.664 124.015C165.177 125.54 164.274 126.86 163.078 127.795C161.882 128.729 160.452 129.231 158.987 129.231C157.521 129.231 156.092 128.729 154.896 127.795C153.699 126.86 152.796 125.54 152.309 124.015L146.485 104.262C144.691 98.2265 141.638 92.7389 137.572 88.2408C133.505 83.7427 128.539 80.3594 123.072 78.3629L105.132 71.9387C103.75 71.4019 102.552 70.4051 101.705 69.0858C100.858 67.7665 100.403 66.1897 100.403 64.5731C100.403 62.9565 100.858 61.3798 101.705 60.0605C102.552 58.7411 103.75 57.7443 105.132 57.2075L123.072 50.7834C128.46 48.7442 133.346 45.3537 137.345 40.8788C141.343 36.4039 144.346 30.9666 146.117 24.9945L151.941 5.24217C152.424 3.71088 153.327 2.38344 154.525 1.44407C155.723 0.504704 157.157 0 158.627 0C160.097 0 161.53 0.504704 162.728 1.44407C163.926 2.38344 164.829 3.69242 165.313 5.22371ZM247.4 151.65L234.597 147.072C230.701 145.642 227.16 143.231 224.256 140.03C221.351 136.829 219.162 132.926 217.862 128.63L213.711 114.526C213.365 113.436 212.72 112.491 211.865 111.823C211.011 111.154 209.989 110.795 208.942 110.795C207.894 110.795 206.873 111.154 206.018 111.823C205.164 112.491 204.519 113.436 204.172 114.526L199.988 128.63C198.717 132.893 196.571 136.774 193.718 139.973C190.865 143.171 187.381 145.601 183.537 147.072L170.735 151.65C169.754 152.04 168.906 152.755 168.307 153.697C167.707 154.638 167.386 155.76 167.386 156.911C167.386 158.061 167.707 159.184 168.307 160.125C168.906 161.067 169.754 161.781 170.735 162.172L183.537 166.769C187.439 168.204 190.983 170.623 193.888 173.834C196.793 177.045 198.98 180.959 200.273 185.266L204.423 199.369C204.77 200.46 205.415 201.404 206.269 202.073C207.124 202.741 208.145 203.1 209.193 203.1C210.24 203.1 211.262 202.741 212.116 202.073C212.971 201.404 213.616 200.46 213.962 199.369L218.13 185.266C219.428 180.971 221.614 177.07 224.516 173.869C227.418 170.668 230.955 168.256 234.848 166.824L247.651 162.246C248.632 161.855 249.48 161.14 250.079 160.199C250.678 159.258 251 158.135 251 156.985C251 155.834 250.678 154.712 250.079 153.77C249.48 152.829 248.632 152.114 247.651 151.724L247.4 151.65ZM204.758 221.06C206.208 221.38 207.698 221.546 209.226 221.558C213.711 221.558 218.046 220.617 221.694 217.682C225.376 214.728 228.054 210.851 229.727 205.664L233.928 191.597L234.296 190.582V203.08C234.296 212.872 230.77 222.262 224.493 229.186C218.216 236.11 209.702 240 200.825 240H33.4709C24.5938 240 16.0804 236.11 9.80339 229.186C3.52638 222.262 0 212.872 0 203.08V92.3187C0 82.5269 3.52638 73.136 9.80339 66.2121C16.0804 59.2882 24.5938 55.3984 33.4709 55.3984H85.1499C84.1611 58.3272 83.6621 61.4295 83.6771 64.5547C83.6771 67.8283 84.1792 70.9296 85.1833 73.8586H33.4709C29.0323 73.8586 24.7756 75.8035 21.6371 79.2654C18.4986 82.7274 16.7354 87.4228 16.7354 92.3187V203.08C16.7354 207.976 18.4986 212.671 21.6371 216.133C24.7756 219.595 29.0323 221.54 33.4709 221.54H200.825C202.15 221.54 203.47 221.366 204.758 221.023M136.143 129.239L136.444 130.199C137.95 134.814 140.628 139.06 145.146 142.955C147.489 144.801 150 146.093 152.677 146.832L152.343 147.699H58.574C56.3547 147.699 54.2264 146.727 52.6571 144.996C51.0879 143.265 50.2063 140.917 50.2063 138.469C50.2063 136.021 51.0879 133.673 52.6571 131.942C54.2264 130.212 56.3547 129.239 58.574 129.239H136.143ZM107.609 92.3187L114.521 94.8478C115.744 96.113 116.593 97.7552 116.959 99.5605C117.324 101.366 117.188 103.251 116.569 104.97C115.949 106.689 114.875 108.162 113.486 109.198C112.097 110.234 110.457 110.785 108.78 110.779H58.574C56.3547 110.779 54.2264 109.806 52.6571 108.075C51.0879 106.345 50.2063 103.997 50.2063 101.549C50.2063 99.1009 51.0879 96.7531 52.6571 95.0222C54.2264 93.2912 56.3547 92.3187 58.574 92.3187H107.609ZM50.2063 175.389C50.2063 172.941 51.0879 170.594 52.6571 168.863C54.2264 167.132 56.3547 166.159 58.574 166.159H125.516C127.735 166.159 129.863 167.132 131.433 168.863C133.002 170.594 133.883 172.941 133.883 175.389C133.883 177.837 133.002 180.185 131.433 181.916C129.863 183.647 127.735 184.62 125.516 184.62H58.574C56.3547 184.62 54.2264 183.647 52.6571 181.916C51.0879 180.185 50.2063 177.837 50.2063 175.389Z" fill="white"/>
</svg>
