<svg width="516" height="353" viewBox="0 0 516 353" fill="none" xmlns="http://www.w3.org/2000/svg">
<path d="M30.912 37.312L32.064 36.48C33.5147 35.6267 34.5387 35.2 35.136 35.2C36.4587 35.2 37.888 36.3947 39.424 38.784C40.3627 40.2773 40.832 41.472 40.832 42.368C40.832 43.264 40.5333 44.0107 39.936 44.608C39.3813 45.2053 38.72 45.7387 37.952 46.208C37.184 46.6773 36.4373 47.1253 35.712 47.552C35.0293 47.9787 33.6 48.5333 31.424 49.216C29.248 49.8987 27.136 50.24 25.088 50.24C23.0827 50.24 21.0347 49.984 18.944 49.472C16.896 48.9173 14.7627 48.0213 12.544 46.784C10.368 45.504 8.40533 43.968 6.656 42.176C4.90667 40.3413 3.456 38.016 2.304 35.2C1.19467 32.3413 0.64 29.248 0.64 25.92C0.64 22.592 1.19467 19.584 2.304 16.896C3.41333 14.1653 4.82133 11.9253 6.528 10.176C8.27733 8.384 10.2613 6.89067 12.48 5.696C16.6613 3.392 20.864 2.24 25.088 2.24C27.0933 2.24 29.12 2.56 31.168 3.2C33.2587 3.79733 34.8373 4.416 35.904 5.056L37.44 5.952C38.208 6.42133 38.8053 6.80533 39.232 7.104C40.3413 8 40.896 9.024 40.896 10.176C40.896 11.2853 40.448 12.4587 39.552 13.696C37.888 16 36.3947 17.152 35.072 17.152C34.304 17.152 33.216 16.6827 31.808 15.744C30.016 14.2933 27.6267 13.568 24.64 13.568C21.8667 13.568 19.136 14.528 16.448 16.448C15.168 17.3867 14.1013 18.7093 13.248 20.416C12.3947 22.1227 11.968 24.064 11.968 26.24C11.968 28.3733 12.3947 30.2933 13.248 32C14.1013 33.7067 15.1893 35.0507 16.512 36.032C19.1147 37.9093 21.824 38.848 24.64 38.848C25.9627 38.848 27.2 38.6773 28.352 38.336C29.5467 37.9947 30.4 37.6533 30.912 37.312Z" fill="#1A0A2E"/>
<path d="M44.0775 32.768C44.0775 27.648 45.8695 23.424 49.4535 20.096C53.0375 16.768 57.1335 15.104 61.7415 15.104C66.3495 15.104 70.4242 16.768 73.9655 20.096C77.5068 23.3813 79.2775 27.584 79.2775 32.704C79.2775 36.2453 78.3602 39.4027 76.5255 42.176C74.6908 44.9067 72.4508 46.9333 69.8055 48.256C67.2028 49.536 64.4935 50.176 61.6775 50.176C58.8615 50.176 56.1308 49.4933 53.4855 48.128C50.8402 46.72 48.6002 44.672 46.7655 41.984C44.9735 39.2533 44.0775 36.1813 44.0775 32.768ZM57.4535 37.376C58.8188 38.4 60.2055 38.912 61.6135 38.912C63.0215 38.912 64.4295 38.3787 65.8375 37.312C67.2455 36.2453 67.9495 34.6667 67.9495 32.576C67.9495 30.4853 67.2882 28.928 65.9655 27.904C64.6428 26.88 63.2135 26.368 61.6775 26.368C60.1415 26.368 58.7122 26.9013 57.3895 27.968C56.0668 29.0347 55.4055 30.6133 55.4055 32.704C55.4055 34.752 56.0882 36.3093 57.4535 37.376Z" fill="#1A0A2E"/>
<path d="M102.164 15.872C106.431 15.872 109.972 17.5147 112.788 20.8C115.647 24.0427 117.076 28.0107 117.076 32.704V43.968C117.076 44.9493 117.034 45.696 116.949 46.208C116.906 46.6773 116.735 47.2107 116.437 47.808C115.839 48.96 114.175 49.536 111.445 49.536C108.415 49.536 106.666 48.7467 106.197 47.168C105.941 46.4427 105.812 45.3547 105.812 43.904V32.64C105.812 30.8907 105.301 29.5253 104.277 28.544C103.295 27.5627 101.951 27.072 100.244 27.072C98.5805 27.072 97.2152 27.584 96.1485 28.608C95.1245 29.632 94.6125 30.976 94.6125 32.64V43.968C94.6125 44.9493 94.5698 45.696 94.4845 46.208C94.4418 46.6773 94.2498 47.2107 93.9085 47.808C93.3538 48.96 91.7112 49.536 88.9805 49.536C86.2925 49.536 84.6498 48.96 84.0525 47.808C83.7538 47.168 83.5618 46.6133 83.4765 46.144C83.4338 45.632 83.4125 44.8853 83.4125 43.904V21.248C83.4125 20.3093 83.4338 19.6053 83.4765 19.136C83.5618 18.624 83.7752 18.0693 84.1165 17.472C84.7138 16.4053 86.3565 15.872 89.0445 15.872C91.6472 15.872 93.2472 16.3627 93.8445 17.344C94.2712 18.0693 94.4845 18.944 94.4845 19.968C94.6552 19.6693 95.0392 19.2427 95.6365 18.688C96.2338 18.1333 96.8098 17.6853 97.3645 17.344C98.8152 16.3627 100.415 15.872 102.164 15.872Z" fill="#1A0A2E"/>
<path d="M121.265 32.768C121.265 27.648 123.057 23.424 126.641 20.096C130.225 16.768 134.321 15.104 138.929 15.104C143.537 15.104 147.612 16.768 151.153 20.096C154.694 23.3813 156.465 27.584 156.465 32.704C156.465 36.2453 155.548 39.4027 153.713 42.176C151.878 44.9067 149.638 46.9333 146.993 48.256C144.39 49.536 141.681 50.176 138.865 50.176C136.049 50.176 133.318 49.4933 130.673 48.128C128.028 46.72 125.788 44.672 123.953 41.984C122.161 39.2533 121.265 36.1813 121.265 32.768ZM134.641 37.376C136.006 38.4 137.393 38.912 138.801 38.912C140.209 38.912 141.617 38.3787 143.025 37.312C144.433 36.2453 145.137 34.6667 145.137 32.576C145.137 30.4853 144.476 28.928 143.153 27.904C141.83 26.88 140.401 26.368 138.865 26.368C137.329 26.368 135.9 26.9013 134.577 27.968C133.254 29.0347 132.593 30.6133 132.593 32.704C132.593 34.752 133.276 36.3093 134.641 37.376Z" fill="#1A0A2E"/>
<path d="M171.16 32.768C171.16 34.56 171.757 35.968 172.952 36.992C174.147 37.9733 175.405 38.464 176.728 38.464C178.093 38.464 179.352 38.08 180.504 37.312C181.699 36.5013 182.659 36.096 183.384 36.096C184.664 36.096 186.221 37.2267 188.056 39.488C189.037 40.7253 189.528 41.8347 189.528 42.816C189.528 44.4373 188.355 45.952 186.008 47.36C183.576 49.0667 180.589 49.92 177.048 49.92C173.08 49.92 169.261 48.4907 165.592 45.632C163.843 44.2667 162.413 42.4533 161.304 40.192C160.195 37.888 159.64 35.3707 159.64 32.64C159.64 29.8667 160.195 27.3707 161.304 25.152C162.413 22.8907 163.843 21.0773 165.592 19.712C169.133 16.896 172.909 15.488 176.92 15.488C178.541 15.488 180.12 15.7227 181.656 16.192C183.192 16.6187 184.323 17.0453 185.048 17.472L186.072 18.112C186.84 18.624 187.437 19.0293 187.864 19.328C188.973 20.1813 189.528 21.1627 189.528 22.272C189.528 23.3387 189.08 24.5547 188.184 25.92C186.648 28.2667 185.176 29.44 183.768 29.44C182.957 29.44 181.805 28.9707 180.312 28.032C179.544 27.3067 178.435 26.944 176.984 26.944C175.576 26.944 174.253 27.456 173.016 28.48C171.779 29.504 171.16 30.9333 171.16 32.768Z" fill="#1A0A2E"/>
<path d="M225.237 28.736C225.237 31.3387 224.576 33.28 223.253 34.56C221.973 35.7973 220.544 36.416 218.965 36.416H203.797C203.797 37.6107 204.501 38.6133 205.909 39.424C207.317 40.2347 208.725 40.64 210.133 40.64C212.608 40.64 214.549 40.384 215.957 39.872L216.661 39.616C217.685 39.1467 218.538 38.912 219.221 38.912C220.586 38.912 221.76 39.872 222.741 41.792C223.296 42.944 223.573 43.9253 223.573 44.736C223.573 48.5333 219.029 50.432 209.941 50.432C206.784 50.432 203.968 49.8987 201.493 48.832C199.061 47.7227 197.162 46.272 195.797 44.48C193.109 41.024 191.765 37.1627 191.765 32.896C191.765 27.52 193.493 23.232 196.949 20.032C200.448 16.7893 204.8 15.168 210.005 15.168C215.936 15.168 220.288 17.2587 223.061 21.44C224.512 23.6587 225.237 26.0907 225.237 28.736ZM211.733 30.592C213.354 30.592 214.165 29.9093 214.165 28.544C214.165 27.5627 213.781 26.7733 213.013 26.176C212.288 25.5787 211.221 25.28 209.813 25.28C208.448 25.28 207.082 25.856 205.717 27.008C204.352 28.1173 203.669 29.312 203.669 30.592H211.733Z" fill="#1A0A2E"/>
<path d="M267.488 19.456C267.744 17.0667 269.429 15.872 272.544 15.872C274.208 15.872 275.445 16 276.256 16.256C277.067 16.512 277.621 16.96 277.92 17.6C278.261 18.24 278.453 18.816 278.496 19.328C278.581 19.7973 278.624 20.5227 278.624 21.504V43.904C278.624 44.8853 278.581 45.632 278.496 46.144C278.453 46.6133 278.283 47.168 277.984 47.808C277.387 48.9173 275.915 49.472 273.568 49.472C271.264 49.472 269.707 49.1947 268.896 48.64C268.128 48.0427 267.68 47.1893 267.552 46.08C265.973 48.3413 263.328 49.472 259.616 49.472C255.947 49.472 252.533 47.7867 249.376 44.416C246.219 41.0453 244.64 37.1413 244.64 32.704C244.64 28.224 246.219 24.32 249.376 20.992C252.576 17.6213 256.075 15.936 259.872 15.936C261.323 15.936 262.645 16.192 263.84 16.704C265.035 17.216 265.867 17.7067 266.336 18.176C266.805 18.6027 267.189 19.0293 267.488 19.456ZM255.84 32.768C255.84 34.176 256.395 35.456 257.504 36.608C258.613 37.7173 259.957 38.272 261.536 38.272C263.115 38.272 264.416 37.696 265.44 36.544C266.507 35.392 267.04 34.1333 267.04 32.768C267.04 31.36 266.528 30.0587 265.504 28.864C264.523 27.6693 263.179 27.072 261.472 27.072C259.808 27.072 258.443 27.6693 257.376 28.864C256.352 30.0587 255.84 31.36 255.84 32.768Z" fill="#1A0A2E"/>
<path d="M299.913 5.632C299.913 4.65067 299.934 3.92533 299.977 3.456C300.062 2.944 300.254 2.368 300.552 1.728C301.15 0.576 302.814 0 305.544 0C308.147 0 309.769 0.576 310.409 1.728C310.75 2.368 310.942 2.944 310.984 3.456C311.07 3.968 311.112 4.71467 311.112 5.696V35.328C311.112 36.864 311.24 37.8453 311.496 38.272C311.752 38.656 312.307 38.848 313.16 38.848C314.056 38.848 314.654 38.8907 314.953 38.976C315.251 39.0187 315.614 39.1893 316.04 39.488C316.894 40.0427 317.32 41.5573 317.32 44.032C317.32 46.72 316.894 48.3627 316.04 48.96C314.931 49.728 312.286 49.856 308.104 49.344C304.819 48.9173 302.686 47.8293 301.704 46.08C300.51 43.9893 299.913 40.6613 299.913 36.096V5.632Z" fill="#1A0A2E"/>
<path d="M342.738 19.456C342.994 17.0667 344.679 15.872 347.794 15.872C349.458 15.872 350.695 16 351.506 16.256C352.317 16.512 352.871 16.96 353.17 17.6C353.511 18.24 353.703 18.816 353.746 19.328C353.831 19.7973 353.874 20.5227 353.874 21.504V43.904C353.874 44.8853 353.831 45.632 353.746 46.144C353.703 46.6133 353.533 47.168 353.234 47.808C352.637 48.9173 351.165 49.472 348.818 49.472C346.514 49.472 344.957 49.1947 344.146 48.64C343.378 48.0427 342.93 47.1893 342.802 46.08C341.223 48.3413 338.578 49.472 334.866 49.472C331.197 49.472 327.783 47.7867 324.626 44.416C321.469 41.0453 319.89 37.1413 319.89 32.704C319.89 28.224 321.469 24.32 324.626 20.992C327.826 17.6213 331.325 15.936 335.122 15.936C336.573 15.936 337.895 16.192 339.09 16.704C340.285 17.216 341.117 17.7067 341.586 18.176C342.055 18.6027 342.439 19.0293 342.738 19.456ZM331.09 32.768C331.09 34.176 331.645 35.456 332.754 36.608C333.863 37.7173 335.207 38.272 336.786 38.272C338.365 38.272 339.666 37.696 340.69 36.544C341.757 35.392 342.29 34.1333 342.29 32.768C342.29 31.36 341.778 30.0587 340.754 28.864C339.773 27.6693 338.429 27.072 336.722 27.072C335.058 27.072 333.693 27.6693 332.626 28.864C331.602 30.0587 331.09 31.36 331.09 32.768Z" fill="#1A0A2E"/>
<path d="M359.231 46.592C358.42 46.08 358.015 45.2693 358.015 44.16C358.015 43.0507 358.826 41.3653 360.447 39.104C360.916 38.3787 361.663 38.016 362.687 38.016C363.754 38.016 365.183 38.5493 366.975 39.616C368.767 40.64 370.388 41.152 371.839 41.152C374.442 41.152 375.743 40.64 375.743 39.616C375.743 38.8053 374.314 38.208 371.455 37.824C368.767 37.44 366.1 36.4373 363.455 34.816C362.218 34.048 361.194 32.8533 360.383 31.232C359.572 29.568 359.167 27.6053 359.167 25.344C359.167 18.6027 363.796 15.232 373.055 15.232C376.084 15.232 379.199 15.9573 382.399 17.408C383.892 18.0907 384.639 18.944 384.639 19.968C384.639 20.992 384.17 22.2507 383.231 23.744C382.292 25.2373 381.332 25.984 380.351 25.984C379.839 25.984 378.879 25.664 377.471 25.024C376.106 24.384 374.612 24.064 372.991 24.064C370.474 24.064 369.215 24.5333 369.215 25.472C369.215 26.752 370.666 27.584 373.567 27.968C376.383 28.2667 379.114 29.0773 381.759 30.4C382.996 30.9973 384.02 32.0427 384.831 33.536C385.684 34.9867 386.111 36.8213 386.111 39.04C386.111 41.2587 385.684 43.1573 384.831 44.736C384.02 46.272 382.868 47.424 381.375 48.192C378.644 49.5147 375.21 50.176 371.071 50.176C366.975 50.176 363.028 48.9813 359.231 46.592Z" fill="#1A0A2E"/>
<path d="M22.848 161.264C23.104 159.003 24.768 157.872 27.84 157.872C29.4613 157.872 30.656 158 31.424 158.256C32.192 158.512 32.7253 158.96 33.024 159.6C33.3653 160.197 33.5573 160.731 33.6 161.2C33.6853 161.669 33.728 162.395 33.728 163.376V200.752C33.728 201.733 33.6853 202.459 33.6 202.928C33.5573 203.397 33.3653 203.931 33.024 204.528C32.7253 205.125 32.1707 205.552 31.36 205.808C30.592 206.064 29.5467 206.192 28.224 206.192C26.9013 206.192 25.856 206.064 25.088 205.808C24.32 205.552 23.7653 205.104 23.424 204.464C23.1253 203.867 22.9333 203.333 22.848 202.864C22.8053 202.395 22.784 201.669 22.784 200.688V187.76C21.0773 189.723 18.6667 190.704 15.552 190.704C11.7547 190.704 8.32 189.061 5.248 185.776C2.176 182.491 0.64 178.672 0.64 174.32C0.64 169.968 2.19733 166.149 5.312 162.864C8.42667 159.579 11.712 157.936 15.168 157.936C18.6667 157.936 21.2267 159.045 22.848 161.264ZM13.184 178.16C14.2933 179.269 15.616 179.824 17.152 179.824C18.688 179.824 19.968 179.269 20.992 178.16C22.016 177.008 22.528 175.771 22.528 174.448C22.528 173.083 22.0373 171.824 21.056 170.672C20.0747 169.477 18.752 168.88 17.088 168.88C15.4667 168.88 14.144 169.456 13.12 170.608C12.096 171.717 11.584 172.976 11.584 174.384C11.584 175.792 12.1173 177.051 13.184 178.16Z" fill="#A855F7"/>
<path d="M53.826 191.472C49.5167 191.472 45.9327 189.851 43.074 186.608C40.258 183.323 38.85 179.333 38.85 174.64V163.44C38.85 162.416 38.8713 161.669 38.914 161.2C38.9993 160.731 39.1913 160.176 39.49 159.536C40.0873 158.384 41.7513 157.808 44.482 157.808C47.4687 157.808 49.218 158.619 49.73 160.24C49.986 160.923 50.114 162.011 50.114 163.504V174.704C50.114 176.453 50.6047 177.819 51.586 178.8C52.61 179.781 53.954 180.272 55.618 180.272C57.3247 180.272 58.69 179.76 59.714 178.736C60.7807 177.712 61.314 176.368 61.314 174.704V163.376C61.314 162.395 61.3353 161.669 61.378 161.2C61.4633 160.688 61.6767 160.112 62.018 159.472C62.5727 158.363 64.2153 157.808 66.946 157.808C69.634 157.808 71.2767 158.384 71.874 159.536C72.1727 160.176 72.3433 160.752 72.386 161.264C72.4713 161.733 72.514 162.459 72.514 163.44V186.096C72.514 187.035 72.4713 187.76 72.386 188.272C72.3433 188.741 72.1513 189.275 71.81 189.872C71.17 190.981 69.5273 191.536 66.882 191.536C64.2793 191.536 62.6793 191.024 62.082 190C61.6553 189.275 61.442 188.4 61.442 187.376C61.2713 187.675 60.8873 188.101 60.29 188.656C59.6927 189.211 59.1167 189.68 58.562 190.064C57.1113 191.003 55.5327 191.472 53.826 191.472Z" fill="#A855F7"/>
<path d="M110.174 170.736C110.174 173.339 109.513 175.28 108.19 176.56C106.91 177.797 105.481 178.416 103.903 178.416H88.7345C88.7345 179.611 89.4385 180.613 90.8465 181.424C92.2545 182.235 93.6625 182.64 95.0705 182.64C97.5452 182.64 99.4865 182.384 100.895 181.872L101.599 181.616C102.623 181.147 103.476 180.912 104.159 180.912C105.524 180.912 106.697 181.872 107.678 183.792C108.233 184.944 108.51 185.925 108.51 186.736C108.51 190.533 103.967 192.432 94.8785 192.432C91.7212 192.432 88.9052 191.899 86.4305 190.832C83.9985 189.723 82.0998 188.272 80.7345 186.48C78.0465 183.024 76.7025 179.163 76.7025 174.896C76.7025 169.52 78.4305 165.232 81.8865 162.032C85.3852 158.789 89.7372 157.168 94.9425 157.168C100.873 157.168 105.225 159.259 107.998 163.44C109.449 165.659 110.174 168.091 110.174 170.736ZM96.6705 172.592C98.2918 172.592 99.1025 171.909 99.1025 170.544C99.1025 169.563 98.7185 168.773 97.9505 168.176C97.2252 167.579 96.1585 167.28 94.7505 167.28C93.3852 167.28 92.0198 167.856 90.6545 169.008C89.2892 170.117 88.6065 171.312 88.6065 172.592H96.6705Z" fill="#A855F7"/>
<path d="M150.122 169.2L145.962 168.944V177.776C145.962 178.928 146.132 179.76 146.473 180.272C146.857 180.784 147.54 181.04 148.521 181.04C149.546 181.04 150.314 181.083 150.826 181.168C151.38 181.211 151.956 181.403 152.553 181.744C153.535 182.299 154.025 183.728 154.025 186.032C154.025 188.72 153.428 190.363 152.234 190.96C151.594 191.259 151.018 191.451 150.506 191.536C150.036 191.579 149.332 191.6 148.393 191.6C143.956 191.6 140.585 190.597 138.281 188.592C135.977 186.587 134.826 183.195 134.826 178.416V168.944C134.015 169.072 133.14 169.136 132.202 169.136C131.263 169.136 130.473 168.773 129.833 168.048C129.236 167.323 128.938 166.085 128.938 164.336C128.938 162.587 129.044 161.328 129.258 160.56C129.471 159.749 129.77 159.173 130.154 158.832C130.836 158.277 131.69 158 132.714 158L134.826 158.256V151.664C134.826 150.683 134.847 149.957 134.889 149.488C134.975 149.019 135.188 148.507 135.529 147.952C136.084 146.885 137.727 146.352 140.458 146.352C143.359 146.352 145.087 147.141 145.641 148.72C145.855 149.403 145.962 150.491 145.962 151.984V158.256C147.839 158.085 149.247 158 150.186 158C151.167 158 151.892 158.043 152.361 158.128C152.873 158.171 153.45 158.363 154.09 158.704C155.199 159.259 155.753 160.901 155.753 163.632C155.753 166.32 155.177 167.963 154.025 168.56C153.385 168.859 152.81 169.051 152.298 169.136C151.828 169.179 151.103 169.2 150.122 169.2Z" fill="#A855F7"/>
<path d="M182.2 158.256C183.01 158.512 183.672 158.96 184.184 159.6C184.738 160.197 185.016 161.179 185.016 162.544C185.016 163.909 184.61 165.403 183.799 167.024C182.989 168.645 181.815 169.456 180.279 169.456C179.511 169.456 178.765 169.285 178.04 168.944C177.357 168.603 176.44 168.432 175.288 168.432C174.136 168.432 173.047 168.837 172.023 169.648C171.042 170.459 170.551 171.44 170.551 172.592V186.032C170.551 187.013 170.509 187.76 170.424 188.272C170.381 188.741 170.189 189.296 169.848 189.936C169.208 191.045 167.543 191.6 164.855 191.6C162.807 191.6 161.335 191.237 160.439 190.512C159.757 189.915 159.373 188.997 159.288 187.76C159.288 187.333 159.288 186.715 159.288 185.904V163.44C159.288 162.459 159.309 161.733 159.352 161.264C159.437 160.752 159.629 160.197 159.928 159.6C160.525 158.448 162.189 157.872 164.919 157.872C167.479 157.872 169.079 158.363 169.719 159.344C170.189 160.027 170.424 160.731 170.424 161.456C170.637 161.157 170.936 160.795 171.32 160.368C171.746 159.941 172.621 159.365 173.943 158.64C175.266 157.915 176.418 157.552 177.4 157.552C178.424 157.552 179.277 157.616 179.96 157.744C180.642 157.829 181.389 158 182.2 158.256Z" fill="#A855F7"/>
<path d="M208.488 161.456C208.744 159.067 210.429 157.872 213.544 157.872C215.208 157.872 216.445 158 217.256 158.256C218.067 158.512 218.621 158.96 218.92 159.6C219.261 160.24 219.453 160.816 219.496 161.328C219.581 161.797 219.624 162.523 219.624 163.504V185.904C219.624 186.885 219.581 187.632 219.496 188.144C219.453 188.613 219.283 189.168 218.984 189.808C218.387 190.917 216.915 191.472 214.568 191.472C212.264 191.472 210.707 191.195 209.896 190.64C209.128 190.043 208.68 189.189 208.552 188.08C206.973 190.341 204.328 191.472 200.616 191.472C196.947 191.472 193.533 189.787 190.376 186.416C187.219 183.045 185.64 179.141 185.64 174.704C185.64 170.224 187.219 166.32 190.376 162.992C193.576 159.621 197.075 157.936 200.872 157.936C202.323 157.936 203.645 158.192 204.84 158.704C206.035 159.216 206.867 159.707 207.336 160.176C207.805 160.603 208.189 161.029 208.488 161.456ZM196.84 174.768C196.84 176.176 197.395 177.456 198.504 178.608C199.613 179.717 200.957 180.272 202.536 180.272C204.115 180.272 205.416 179.696 206.44 178.544C207.507 177.392 208.04 176.133 208.04 174.768C208.04 173.36 207.528 172.059 206.504 170.864C205.523 169.669 204.179 169.072 202.472 169.072C200.808 169.072 199.443 169.669 198.376 170.864C197.352 172.059 196.84 173.36 196.84 174.768Z" fill="#A855F7"/>
<path d="M243.477 157.872C247.744 157.872 251.285 159.515 254.101 162.8C256.96 166.043 258.389 170.011 258.389 174.704V185.968C258.389 186.949 258.346 187.696 258.261 188.208C258.218 188.677 258.048 189.211 257.749 189.808C257.152 190.96 255.488 191.536 252.757 191.536C249.728 191.536 247.978 190.747 247.509 189.168C247.253 188.443 247.125 187.355 247.125 185.904V174.64C247.125 172.891 246.613 171.525 245.589 170.544C244.608 169.563 243.264 169.072 241.557 169.072C239.893 169.072 238.528 169.584 237.461 170.608C236.437 171.632 235.925 172.976 235.925 174.64V185.968C235.925 186.949 235.882 187.696 235.797 188.208C235.754 188.677 235.562 189.211 235.221 189.808C234.666 190.96 233.024 191.536 230.293 191.536C227.605 191.536 225.962 190.96 225.365 189.808C225.066 189.168 224.874 188.613 224.789 188.144C224.746 187.632 224.725 186.885 224.725 185.904V163.248C224.725 162.309 224.746 161.605 224.789 161.136C224.874 160.624 225.088 160.069 225.429 159.472C226.026 158.405 227.669 157.872 230.357 157.872C232.96 157.872 234.56 158.363 235.157 159.344C235.584 160.069 235.797 160.944 235.797 161.968C235.968 161.669 236.352 161.243 236.949 160.688C237.546 160.133 238.122 159.685 238.677 159.344C240.128 158.363 241.728 157.872 243.477 157.872Z" fill="#A855F7"/>
<path d="M263.793 188.592C262.983 188.08 262.578 187.269 262.578 186.16C262.578 185.051 263.388 183.365 265.009 181.104C265.479 180.379 266.226 180.016 267.25 180.016C268.316 180.016 269.746 180.549 271.538 181.616C273.33 182.64 274.951 183.152 276.401 183.152C279.004 183.152 280.306 182.64 280.306 181.616C280.306 180.805 278.876 180.208 276.017 179.824C273.329 179.44 270.663 178.437 268.017 176.816C266.78 176.048 265.756 174.853 264.945 173.232C264.135 171.568 263.729 169.605 263.729 167.344C263.729 160.603 268.359 157.232 277.617 157.232C280.647 157.232 283.761 157.957 286.961 159.408C288.455 160.091 289.202 160.944 289.202 161.968C289.202 162.992 288.732 164.251 287.793 165.744C286.855 167.237 285.895 167.984 284.914 167.984C284.402 167.984 283.442 167.664 282.034 167.024C280.668 166.384 279.175 166.064 277.553 166.064C275.036 166.064 273.777 166.533 273.777 167.472C273.777 168.752 275.228 169.584 278.129 169.968C280.945 170.267 283.676 171.077 286.322 172.4C287.559 172.997 288.583 174.043 289.393 175.536C290.247 176.987 290.673 178.821 290.673 181.04C290.673 183.259 290.247 185.157 289.393 186.736C288.583 188.272 287.431 189.424 285.938 190.192C283.207 191.515 279.772 192.176 275.634 192.176C271.538 192.176 267.591 190.981 263.793 188.592Z" fill="#A855F7"/>
<path d="M313.312 157.936C316.256 157.936 317.984 158.747 318.496 160.368C318.752 161.179 318.88 162.245 318.88 163.568C318.88 164.891 318.731 165.957 318.432 166.768C318.176 167.536 317.749 168.091 317.152 168.432C316.256 168.944 314.955 169.2 313.248 169.2L309.152 168.944V186.096C309.152 187.717 308.939 188.933 308.512 189.744C308.128 190.512 307.509 191.024 306.656 191.28C305.845 191.536 304.779 191.664 303.456 191.664C302.133 191.664 301.067 191.536 300.256 191.28C299.488 190.981 298.933 190.533 298.592 189.936C298.251 189.296 298.037 188.72 297.952 188.208C297.909 187.696 297.888 186.949 297.888 185.968V169.008H295.584C294.475 168.923 293.685 168.667 293.216 168.24C292.405 167.429 292 165.872 292 163.568C292 160.069 293.259 158.32 295.776 158.32H297.888V154.928C297.888 151.643 299.061 148.677 301.408 146.032C303.755 143.344 307.147 142 311.584 142C312.565 142 313.291 142.043 313.76 142.128C314.272 142.171 314.848 142.363 315.488 142.704C316.64 143.259 317.216 144.901 317.216 147.632C317.216 149.68 316.853 151.152 316.128 152.048C315.531 152.731 314.592 153.115 313.312 153.2C312.928 153.2 312.331 153.2 311.52 153.2C309.941 153.2 309.152 153.733 309.152 154.8V158.32L313.312 157.936Z" fill="#A855F7"/>
<path d="M320.203 174.768C320.203 169.648 321.994 165.424 325.578 162.096C329.162 158.768 333.259 157.104 337.867 157.104C342.475 157.104 346.549 158.768 350.091 162.096C353.632 165.381 355.402 169.584 355.402 174.704C355.402 178.245 354.485 181.403 352.651 184.176C350.816 186.907 348.576 188.933 345.931 190.256C343.328 191.536 340.618 192.176 337.802 192.176C334.986 192.176 332.256 191.493 329.611 190.128C326.965 188.72 324.725 186.672 322.891 183.984C321.099 181.253 320.203 178.181 320.203 174.768ZM333.578 179.376C334.944 180.4 336.33 180.912 337.738 180.912C339.146 180.912 340.554 180.379 341.962 179.312C343.37 178.245 344.074 176.667 344.074 174.576C344.074 172.485 343.413 170.928 342.091 169.904C340.768 168.88 339.338 168.368 337.802 168.368C336.266 168.368 334.837 168.901 333.514 169.968C332.192 171.035 331.53 172.613 331.53 174.704C331.53 176.752 332.213 178.309 333.578 179.376Z" fill="#A855F7"/>
<path d="M382.449 158.256C383.26 158.512 383.922 158.96 384.434 159.6C384.988 160.197 385.266 161.179 385.266 162.544C385.266 163.909 384.86 165.403 384.049 167.024C383.239 168.645 382.066 169.456 380.53 169.456C379.762 169.456 379.015 169.285 378.289 168.944C377.607 168.603 376.69 168.432 375.538 168.432C374.386 168.432 373.297 168.837 372.273 169.648C371.292 170.459 370.802 171.44 370.802 172.592V186.032C370.802 187.013 370.759 187.76 370.673 188.272C370.631 188.741 370.439 189.296 370.098 189.936C369.458 191.045 367.793 191.6 365.105 191.6C363.057 191.6 361.586 191.237 360.69 190.512C360.007 189.915 359.623 188.997 359.538 187.76C359.538 187.333 359.538 186.715 359.538 185.904V163.44C359.538 162.459 359.559 161.733 359.602 161.264C359.687 160.752 359.879 160.197 360.177 159.6C360.775 158.448 362.439 157.872 365.169 157.872C367.729 157.872 369.33 158.363 369.97 159.344C370.439 160.027 370.673 160.731 370.673 161.456C370.887 161.157 371.185 160.795 371.569 160.368C371.996 159.941 372.871 159.365 374.194 158.64C375.516 157.915 376.668 157.552 377.65 157.552C378.674 157.552 379.527 157.616 380.21 157.744C380.892 157.829 381.639 158 382.449 158.256Z" fill="#A855F7"/>
<path d="M399.796 162.352C401.801 159.323 404.211 157.808 407.027 157.808C411.379 157.808 414.622 159.664 416.755 163.376C417.225 162.736 417.779 162.075 418.419 161.392C419.102 160.667 420.169 159.899 421.62 159.088C423.07 158.235 424.563 157.808 426.099 157.808C429.513 157.808 432.372 159.131 434.676 161.776C436.98 164.379 438.132 168.709 438.132 174.768V185.968C438.132 186.949 438.089 187.696 438.004 188.208C437.961 188.677 437.769 189.232 437.427 189.872C436.873 191.024 435.23 191.6 432.5 191.6C429.812 191.6 428.169 191.003 427.572 189.808C427.273 189.168 427.081 188.613 426.996 188.144C426.953 187.632 426.931 186.885 426.931 185.904V174.704C426.931 170.992 425.609 169.136 422.964 169.136C421.47 169.136 420.446 169.627 419.892 170.608C419.38 171.589 419.124 172.976 419.124 174.768V185.968C419.124 186.992 419.081 187.739 418.996 188.208C418.953 188.677 418.761 189.232 418.419 189.872C417.822 191.024 416.158 191.6 413.427 191.6C410.739 191.6 409.097 191.003 408.5 189.808C408.201 189.168 408.009 188.613 407.923 188.144C407.881 187.632 407.859 186.885 407.859 185.904V174.704C407.859 170.992 406.537 169.136 403.892 169.136C401.332 169.136 400.052 170.992 400.052 174.704V186.032C400.052 187.013 400.009 187.76 399.923 188.272C399.881 188.741 399.689 189.296 399.348 189.936C398.708 191.045 397.043 191.6 394.355 191.6C391.667 191.6 390.025 191.024 389.427 189.872C389.129 189.232 388.937 188.677 388.852 188.208C388.809 187.739 388.788 186.992 388.788 185.968V163.44C388.788 162.459 388.809 161.733 388.852 161.264C388.937 160.752 389.15 160.197 389.491 159.6C390.131 158.448 391.646 157.872 394.035 157.872C396.425 157.872 397.982 158.256 398.707 159.024C399.433 159.792 399.796 160.901 399.796 162.352Z" fill="#A855F7"/>
<path d="M465.113 161.456C465.369 159.067 467.054 157.872 470.169 157.872C471.833 157.872 473.07 158 473.881 158.256C474.692 158.512 475.246 158.96 475.545 159.6C475.886 160.24 476.078 160.816 476.121 161.328C476.206 161.797 476.249 162.523 476.249 163.504V185.904C476.249 186.885 476.206 187.632 476.121 188.144C476.078 188.613 475.908 189.168 475.609 189.808C475.012 190.917 473.54 191.472 471.193 191.472C468.889 191.472 467.332 191.195 466.521 190.64C465.753 190.043 465.305 189.189 465.177 188.08C463.598 190.341 460.953 191.472 457.241 191.472C453.572 191.472 450.158 189.787 447.001 186.416C443.844 183.045 442.265 179.141 442.265 174.704C442.265 170.224 443.844 166.32 447.001 162.992C450.201 159.621 453.7 157.936 457.497 157.936C458.948 157.936 460.27 158.192 461.465 158.704C462.66 159.216 463.492 159.707 463.961 160.176C464.43 160.603 464.814 161.029 465.113 161.456ZM453.465 174.768C453.465 176.176 454.02 177.456 455.129 178.608C456.238 179.717 457.582 180.272 459.161 180.272C460.74 180.272 462.041 179.696 463.065 178.544C464.132 177.392 464.665 176.133 464.665 174.768C464.665 173.36 464.153 172.059 463.129 170.864C462.148 169.669 460.804 169.072 459.097 169.072C457.433 169.072 456.068 169.669 455.001 170.864C453.977 172.059 453.465 173.36 453.465 174.768Z" fill="#A855F7"/>
<path d="M500.102 157.872C504.369 157.872 507.91 159.515 510.726 162.8C513.585 166.043 515.014 170.011 515.014 174.704V185.968C515.014 186.949 514.971 187.696 514.886 188.208C514.843 188.677 514.673 189.211 514.374 189.808C513.777 190.96 512.113 191.536 509.382 191.536C506.353 191.536 504.603 190.747 504.134 189.168C503.878 188.443 503.75 187.355 503.75 185.904V174.64C503.75 172.891 503.238 171.525 502.214 170.544C501.233 169.563 499.889 169.072 498.182 169.072C496.518 169.072 495.153 169.584 494.086 170.608C493.062 171.632 492.55 172.976 492.55 174.64V185.968C492.55 186.949 492.507 187.696 492.422 188.208C492.379 188.677 492.187 189.211 491.846 189.808C491.291 190.96 489.649 191.536 486.918 191.536C484.23 191.536 482.587 190.96 481.99 189.808C481.691 189.168 481.499 188.613 481.414 188.144C481.371 187.632 481.35 186.885 481.35 185.904V163.248C481.35 162.309 481.371 161.605 481.414 161.136C481.499 160.624 481.713 160.069 482.054 159.472C482.651 158.405 484.294 157.872 486.982 157.872C489.585 157.872 491.185 158.363 491.782 159.344C492.209 160.069 492.422 160.944 492.422 161.968C492.593 161.669 492.977 161.243 493.574 160.688C494.171 160.133 494.747 159.685 495.302 159.344C496.753 158.363 498.353 157.872 500.102 157.872Z" fill="#A855F7"/>
<path d="M32.96 304.256C35.4773 305.365 36.736 306.709 36.736 308.288C36.736 309.056 36.5653 309.781 36.224 310.464C35.8827 311.147 35.712 311.509 35.712 311.552L18.944 349.056C18.6027 349.867 18.304 350.485 18.048 350.912C17.8347 351.339 17.472 351.744 16.96 352.128C16.448 352.512 15.808 352.704 15.04 352.704C14.272 352.704 13.1413 352.384 11.648 351.744C9.13067 350.635 7.872 349.312 7.872 347.776C7.872 346.752 9.92 341.867 14.016 333.12L1.28 311.68C0.426667 310.272 0 309.227 0 308.544C0 307.179 1.152 305.813 3.456 304.448C4.90667 303.595 6.03733 303.168 6.848 303.168C7.65867 303.168 8.32 303.339 8.832 303.68C9.344 304.021 9.70667 304.384 9.92 304.768C10.176 305.109 11.3493 307.093 13.44 310.72C15.5733 314.304 17.6 317.653 19.52 320.768C19.7333 320.085 20.8853 317.461 22.976 312.896C25.0667 308.288 26.176 305.835 26.304 305.536C26.4747 305.237 26.7307 304.875 27.072 304.448C27.6267 303.723 28.3947 303.36 29.376 303.36C30.4 303.36 31.5947 303.659 32.96 304.256Z" fill="#1A0A2E"/>
<path d="M71.3885 337.472C67.0792 337.472 63.4952 335.851 60.6365 332.608C57.8205 329.323 56.4125 325.333 56.4125 320.64V309.44C56.4125 308.416 56.4338 307.669 56.4765 307.2C56.5618 306.731 56.7538 306.176 57.0525 305.536C57.6498 304.384 59.3138 303.808 62.0445 303.808C65.0312 303.808 66.7805 304.619 67.2925 306.24C67.5485 306.923 67.6765 308.011 67.6765 309.504V320.704C67.6765 322.453 68.1672 323.819 69.1485 324.8C70.1725 325.781 71.5165 326.272 73.1805 326.272C74.8872 326.272 76.2525 325.76 77.2765 324.736C78.3432 323.712 78.8765 322.368 78.8765 320.704V309.376C78.8765 308.395 78.8978 307.669 78.9405 307.2C79.0258 306.688 79.2392 306.112 79.5805 305.472C80.1352 304.363 81.7778 303.808 84.5085 303.808C87.1965 303.808 88.8392 304.384 89.4365 305.536C89.7352 306.176 89.9058 306.752 89.9485 307.264C90.0338 307.733 90.0765 308.459 90.0765 309.44V332.096C90.0765 333.035 90.0338 333.76 89.9485 334.272C89.9058 334.741 89.7138 335.275 89.3725 335.872C88.7325 336.981 87.0898 337.536 84.4445 337.536C81.8418 337.536 80.2418 337.024 79.6445 336C79.2178 335.275 79.0045 334.4 79.0045 333.376C78.8338 333.675 78.4498 334.101 77.8525 334.656C77.2552 335.211 76.6792 335.68 76.1245 336.064C74.6738 337.003 73.0952 337.472 71.3885 337.472ZM71.7085 300.736L69.7885 301.184C68.5085 301.184 67.4632 299.925 66.6525 297.408C66.3112 296.384 66.1405 295.509 66.1405 294.784C66.1405 294.059 66.2685 293.504 66.5245 293.12C66.9512 292.565 67.7405 292.117 68.8925 291.776L79.4525 288.512C80.5618 288.213 81.2018 288.064 81.3725 288.064C82.6525 288.064 83.6765 289.323 84.4445 291.84C84.7858 292.864 84.9565 293.739 84.9565 294.464C84.9565 295.147 84.8285 295.68 84.5725 296.064C84.1458 296.619 83.3565 297.067 82.2045 297.408L71.7085 300.736Z" fill="#1A0A2E"/>
<path d="M113.977 303.872C118.244 303.872 121.785 305.515 124.601 308.8C127.46 312.043 128.889 316.011 128.889 320.704V331.968C128.889 332.949 128.846 333.696 128.761 334.208C128.718 334.677 128.548 335.211 128.249 335.808C127.652 336.96 125.988 337.536 123.257 337.536C120.228 337.536 118.478 336.747 118.009 335.168C117.753 334.443 117.625 333.355 117.625 331.904V320.64C117.625 318.891 117.113 317.525 116.089 316.544C115.108 315.563 113.764 315.072 112.057 315.072C110.393 315.072 109.028 315.584 107.961 316.608C106.937 317.632 106.425 318.976 106.425 320.64V331.968C106.425 332.949 106.382 333.696 106.297 334.208C106.254 334.677 106.062 335.211 105.721 335.808C105.166 336.96 103.524 337.536 100.793 337.536C98.105 337.536 96.4623 336.96 95.865 335.808C95.5663 335.168 95.3743 334.613 95.289 334.144C95.2463 333.632 95.225 332.885 95.225 331.904V309.248C95.225 308.309 95.2463 307.605 95.289 307.136C95.3743 306.624 95.5877 306.069 95.929 305.472C96.5263 304.405 98.169 303.872 100.857 303.872C103.46 303.872 105.06 304.363 105.657 305.344C106.084 306.069 106.297 306.944 106.297 307.968C106.468 307.669 106.852 307.243 107.449 306.688C108.046 306.133 108.622 305.685 109.177 305.344C110.628 304.363 112.228 303.872 113.977 303.872Z" fill="#1A0A2E"/>
<path d="M166.549 316.736C166.549 319.339 165.888 321.28 164.566 322.56C163.286 323.797 161.856 324.416 160.277 324.416H145.109C145.109 325.611 145.813 326.613 147.221 327.424C148.629 328.235 150.037 328.64 151.445 328.64C153.92 328.64 155.861 328.384 157.27 327.872L157.973 327.616C158.997 327.147 159.851 326.912 160.534 326.912C161.899 326.912 163.072 327.872 164.053 329.792C164.608 330.944 164.885 331.925 164.885 332.736C164.885 336.533 160.341 338.432 151.253 338.432C148.096 338.432 145.28 337.899 142.805 336.832C140.373 335.723 138.475 334.272 137.109 332.48C134.421 329.024 133.077 325.163 133.077 320.896C133.077 315.52 134.806 311.232 138.262 308.032C141.76 304.789 146.112 303.168 151.318 303.168C157.248 303.168 161.6 305.259 164.374 309.44C165.824 311.659 166.549 314.091 166.549 316.736ZM153.046 318.592C154.667 318.592 155.478 317.909 155.478 316.544C155.478 315.563 155.094 314.773 154.326 314.176C153.6 313.579 152.534 313.28 151.126 313.28C149.76 313.28 148.395 313.856 147.029 315.008C145.664 316.117 144.982 317.312 144.982 318.592H153.046Z" fill="#1A0A2E"/>
<path d="M189.684 315.2L185.524 314.944V323.776C185.524 324.928 185.695 325.76 186.036 326.272C186.42 326.784 187.103 327.04 188.084 327.04C189.108 327.04 189.876 327.083 190.388 327.168C190.943 327.211 191.519 327.403 192.116 327.744C193.097 328.299 193.588 329.728 193.588 332.032C193.588 334.72 192.991 336.363 191.796 336.96C191.156 337.259 190.58 337.451 190.068 337.536C189.599 337.579 188.895 337.6 187.956 337.6C183.519 337.6 180.148 336.597 177.844 334.592C175.54 332.587 174.388 329.195 174.388 324.416V314.944C173.577 315.072 172.703 315.136 171.764 315.136C170.825 315.136 170.036 314.773 169.396 314.048C168.799 313.323 168.5 312.085 168.5 310.336C168.5 308.587 168.607 307.328 168.82 306.56C169.033 305.749 169.332 305.173 169.716 304.832C170.399 304.277 171.252 304 172.276 304L174.388 304.256V297.664C174.388 296.683 174.409 295.957 174.452 295.488C174.537 295.019 174.751 294.507 175.092 293.952C175.647 292.885 177.289 292.352 180.02 292.352C182.921 292.352 184.649 293.141 185.204 294.72C185.417 295.403 185.524 296.491 185.524 297.984V304.256C187.401 304.085 188.809 304 189.748 304C190.729 304 191.455 304.043 191.924 304.128C192.436 304.171 193.012 304.363 193.652 304.704C194.761 305.259 195.316 306.901 195.316 309.632C195.316 312.32 194.74 313.963 193.588 314.56C192.948 314.859 192.372 315.051 191.86 315.136C191.391 315.179 190.665 315.2 189.684 315.2Z" fill="#1A0A2E"/>
<path d="M230.112 316.736C230.112 319.339 229.451 321.28 228.128 322.56C226.848 323.797 225.419 324.416 223.84 324.416H208.672C208.672 325.611 209.376 326.613 210.784 327.424C212.192 328.235 213.6 328.64 215.008 328.64C217.483 328.64 219.424 328.384 220.832 327.872L221.536 327.616C222.56 327.147 223.413 326.912 224.096 326.912C225.461 326.912 226.635 327.872 227.616 329.792C228.171 330.944 228.448 331.925 228.448 332.736C228.448 336.533 223.904 338.432 214.816 338.432C211.659 338.432 208.843 337.899 206.368 336.832C203.936 335.723 202.037 334.272 200.672 332.48C197.984 329.024 196.64 325.163 196.64 320.896C196.64 315.52 198.368 311.232 201.824 308.032C205.323 304.789 209.675 303.168 214.88 303.168C220.811 303.168 225.163 305.259 227.936 309.44C229.387 311.659 230.112 314.091 230.112 316.736ZM216.608 318.592C218.229 318.592 219.04 317.909 219.04 316.544C219.04 315.563 218.656 314.773 217.888 314.176C217.163 313.579 216.096 313.28 214.688 313.28C213.323 313.28 211.957 313.856 210.592 315.008C209.227 316.117 208.544 317.312 208.544 318.592H216.608Z" fill="#1A0A2E"/>
<path d="M272.363 307.456C272.619 305.067 274.304 303.872 277.419 303.872C279.083 303.872 280.32 304 281.131 304.256C281.942 304.512 282.496 304.96 282.795 305.6C283.136 306.24 283.328 306.816 283.371 307.328C283.456 307.797 283.499 308.523 283.499 309.504V331.904C283.499 332.885 283.456 333.632 283.371 334.144C283.328 334.613 283.158 335.168 282.859 335.808C282.262 336.917 280.79 337.472 278.443 337.472C276.139 337.472 274.582 337.195 273.771 336.64C273.003 336.043 272.555 335.189 272.427 334.08C270.848 336.341 268.203 337.472 264.491 337.472C260.822 337.472 257.408 335.787 254.251 332.416C251.094 329.045 249.515 325.141 249.515 320.704C249.515 316.224 251.094 312.32 254.251 308.992C257.451 305.621 260.95 303.936 264.747 303.936C266.198 303.936 267.52 304.192 268.715 304.704C269.91 305.216 270.742 305.707 271.211 306.176C271.68 306.603 272.064 307.029 272.363 307.456ZM260.715 320.768C260.715 322.176 261.27 323.456 262.379 324.608C263.488 325.717 264.832 326.272 266.411 326.272C267.99 326.272 269.291 325.696 270.315 324.544C271.382 323.392 271.915 322.133 271.915 320.768C271.915 319.36 271.403 318.059 270.379 316.864C269.398 315.669 268.054 315.072 266.347 315.072C264.683 315.072 263.318 315.669 262.251 316.864C261.227 318.059 260.715 319.36 260.715 320.768Z" fill="#1A0A2E"/>
<path d="M337.299 316.736C337.299 319.339 336.638 321.28 335.315 322.56C334.035 323.797 332.606 324.416 331.027 324.416H315.859C315.859 325.611 316.563 326.613 317.971 327.424C319.379 328.235 320.787 328.64 322.195 328.64C324.67 328.64 326.611 328.384 328.02 327.872L328.724 327.616C329.748 327.147 330.601 326.912 331.284 326.912C332.649 326.912 333.822 327.872 334.803 329.792C335.358 330.944 335.635 331.925 335.635 332.736C335.635 336.533 331.092 338.432 322.004 338.432C318.846 338.432 316.03 337.899 313.556 336.832C311.124 335.723 309.225 334.272 307.859 332.48C305.171 329.024 303.828 325.163 303.828 320.896C303.828 315.52 305.556 311.232 309.012 308.032C312.51 304.789 316.862 303.168 322.068 303.168C327.998 303.168 332.35 305.259 335.124 309.44C336.574 311.659 337.299 314.091 337.299 316.736ZM323.796 318.592C325.417 318.592 326.228 317.909 326.228 316.544C326.228 315.563 325.844 314.773 325.076 314.176C324.35 313.579 323.283 313.28 321.875 313.28C320.51 313.28 319.145 313.856 317.78 315.008C316.414 316.117 315.732 317.312 315.732 318.592H323.796Z" fill="#1A0A2E"/>
<path d="M353.251 326.272C354.659 326.272 355.704 326.635 356.387 327.36C357.07 328.085 357.411 329.579 357.411 331.84C357.411 334.101 357.048 335.616 356.323 336.384C355.598 337.109 354.552 337.472 353.187 337.472C348.878 337.472 345.848 336.448 344.099 334.4C342.35 332.309 341.475 328.853 341.475 324.032V293.504C341.475 292.523 341.496 291.797 341.539 291.328C341.624 290.816 341.816 290.24 342.115 289.6C342.712 288.491 344.376 287.936 347.107 287.936C349.71 287.936 351.331 288.533 351.971 289.728C352.312 290.325 352.504 290.88 352.547 291.392C352.632 291.861 352.675 292.587 352.675 293.568V324.288C352.675 325.611 352.867 326.272 353.251 326.272ZM369.955 324.288C369.955 325.099 370.126 325.632 370.467 325.888C370.808 326.144 371.683 326.272 373.091 326.272C374.499 326.272 375.672 326.635 376.611 327.36C377.55 328.085 378.019 329.579 378.019 331.84C378.019 334.101 377.507 335.616 376.483 336.384C375.502 337.109 374.115 337.472 372.323 337.472C363.278 337.472 358.755 332.992 358.755 324.032L358.691 293.504C358.691 292.523 358.712 291.797 358.755 291.328C358.84 290.816 359.054 290.24 359.395 289.6C360.035 288.491 361.699 287.936 364.387 287.936C366.99 287.936 368.611 288.533 369.251 289.728C369.72 290.667 369.955 291.947 369.955 293.568V324.288Z" fill="#1A0A2E"/>
<path d="M403.426 307.456C403.682 305.067 405.367 303.872 408.482 303.872C410.146 303.872 411.383 304 412.194 304.256C413.004 304.512 413.559 304.96 413.858 305.6C414.199 306.24 414.391 306.816 414.434 307.328C414.519 307.797 414.561 308.523 414.561 309.504V331.904C414.561 332.885 414.519 333.632 414.434 334.144C414.391 334.613 414.22 335.168 413.922 335.808C413.324 336.917 411.852 337.472 409.505 337.472C407.201 337.472 405.644 337.195 404.833 336.64C404.065 336.043 403.618 335.189 403.49 334.08C401.911 336.341 399.265 337.472 395.553 337.472C391.884 337.472 388.471 335.787 385.314 332.416C382.156 329.045 380.578 325.141 380.578 320.704C380.578 316.224 382.156 312.32 385.314 308.992C388.514 305.621 392.012 303.936 395.81 303.936C397.26 303.936 398.583 304.192 399.777 304.704C400.972 305.216 401.804 305.707 402.273 306.176C402.743 306.603 403.127 307.029 403.426 307.456ZM391.777 320.768C391.777 322.176 392.332 323.456 393.441 324.608C394.551 325.717 395.895 326.272 397.474 326.272C399.052 326.272 400.354 325.696 401.378 324.544C402.444 323.392 402.978 322.133 402.978 320.768C402.978 319.36 402.465 318.059 401.441 316.864C400.46 315.669 399.116 315.072 397.41 315.072C395.746 315.072 394.38 315.669 393.314 316.864C392.29 318.059 391.777 319.36 391.777 320.768Z" fill="#1A0A2E"/>
<path d="M419.918 334.592C419.108 334.08 418.703 333.269 418.703 332.16C418.703 331.051 419.513 329.365 421.134 327.104C421.604 326.379 422.351 326.016 423.375 326.016C424.441 326.016 425.871 326.549 427.663 327.616C429.455 328.64 431.076 329.152 432.526 329.152C435.129 329.152 436.431 328.64 436.431 327.616C436.431 326.805 435.001 326.208 432.142 325.824C429.454 325.44 426.788 324.437 424.142 322.816C422.905 322.048 421.881 320.853 421.07 319.232C420.26 317.568 419.854 315.605 419.854 313.344C419.854 306.603 424.484 303.232 433.742 303.232C436.772 303.232 439.886 303.957 443.086 305.408C444.58 306.091 445.327 306.944 445.327 307.968C445.327 308.992 444.857 310.251 443.918 311.744C442.98 313.237 442.02 313.984 441.039 313.984C440.527 313.984 439.567 313.664 438.159 313.024C436.793 312.384 435.3 312.064 433.678 312.064C431.161 312.064 429.902 312.533 429.902 313.472C429.902 314.752 431.353 315.584 434.254 315.968C437.07 316.267 439.801 317.077 442.447 318.4C443.684 318.997 444.708 320.043 445.518 321.536C446.372 322.987 446.798 324.821 446.798 327.04C446.798 329.259 446.372 331.157 445.518 332.736C444.708 334.272 443.556 335.424 442.062 336.192C439.332 337.515 435.897 338.176 431.759 338.176C427.663 338.176 423.716 336.981 419.918 334.592Z" fill="#1A0A2E"/>
<path d="M77.664 64.92C78.176 65.88 78.464 66.744 78.528 67.512C78.656 68.28 78.72 69.4 78.72 70.872V124.152C78.72 128.568 77.504 131.16 75.072 131.928C73.856 132.312 72.32 132.504 70.464 132.504C68.608 132.504 67.136 132.344 66.048 132.024C64.96 131.704 64.128 131.32 63.552 130.872C62.976 130.424 62.528 129.784 62.208 128.952C61.888 127.864 61.728 126.2 61.728 123.96V91.8C60.128 93.784 57.792 96.952 54.72 101.304C51.648 105.592 49.696 108.28 48.864 109.368C48.032 110.456 47.456 111.224 47.136 111.672C46.816 112.056 46.016 112.632 44.736 113.4C43.52 114.104 42.176 114.456 40.704 114.456C39.296 114.456 37.984 114.136 36.768 113.496C35.616 112.792 34.784 112.12 34.272 111.48L33.504 110.424C32.224 108.824 29.696 105.432 25.92 100.248C22.144 95 20.096 92.184 19.776 91.8V124.152C19.776 125.624 19.712 126.744 19.584 127.512C19.52 128.216 19.232 129.016 18.72 129.912C17.76 131.64 15.264 132.504 11.232 132.504C7.328 132.504 4.896 131.64 3.936 129.912C3.424 129.016 3.104 128.184 2.976 127.416C2.912 126.648 2.88 125.496 2.88 123.96V70.68C2.88 69.208 2.912 68.12 2.976 67.416C3.104 66.648 3.424 65.784 3.936 64.824C4.896 63.16 7.392 62.328 11.424 62.328C13.152 62.328 14.624 62.552 15.84 63C17.12 63.384 17.952 63.8 18.336 64.248L18.912 64.824L40.704 93.432C51.584 79.032 58.848 69.528 62.496 64.92C63.584 63.192 66.144 62.328 70.176 62.328C74.272 62.328 76.768 63.192 77.664 64.92Z" fill="#EC4899"/>
<path d="M132.395 64.824C133.035 63.8 133.963 63.096 135.179 62.712C136.395 62.328 137.899 62.136 139.691 62.136C141.547 62.136 143.019 62.296 144.107 62.616C145.195 62.936 146.027 63.32 146.603 63.768C147.179 64.216 147.595 64.888 147.851 65.784C148.235 66.872 148.427 68.536 148.427 70.776V99.768C148.427 108.216 145.803 115.896 140.555 122.808C137.995 126.072 134.699 128.728 130.667 130.776C126.635 132.76 122.155 133.752 117.227 133.752C112.363 133.752 107.915 132.728 103.883 130.68C99.9153 128.632 96.6832 125.944 94.1872 122.616C89.0032 115.832 86.4112 108.152 86.4112 99.576V70.68C86.4112 69.144 86.4432 68.024 86.5072 67.32C86.6352 66.552 86.9552 65.688 87.4672 64.728C87.9792 63.768 88.8433 63.096 90.0592 62.712C91.2752 62.328 92.9073 62.136 94.9553 62.136C97.0033 62.136 98.6353 62.328 99.8512 62.712C101.067 63.096 101.899 63.768 102.347 64.728C103.115 66.2 103.499 68.216 103.499 70.776V99.576C103.499 103.48 104.459 107.192 106.379 110.712C107.339 112.504 108.779 113.944 110.699 115.032C112.619 116.12 114.891 116.664 117.515 116.664C122.187 116.664 125.675 114.936 127.979 111.48C130.283 108.024 131.435 104.024 131.435 99.48V70.104C131.435 67.608 131.755 65.848 132.395 64.824Z" fill="#EC4899"/>
<path d="M188.128 62.232C190.624 62.232 192.448 62.456 193.6 62.904C194.816 63.288 195.68 63.96 196.192 64.92C196.896 66.392 197.248 68.376 197.248 70.872V108.024C197.248 114.744 194.816 120.696 189.952 125.88C185.088 131 178.88 133.56 171.328 133.56C167.104 133.56 163.36 132.632 160.096 130.776C157.152 129.176 155.104 127.736 153.952 126.456L153.184 125.688C150.944 123.32 149.824 121.304 149.824 119.64C149.824 117.912 150.944 115.896 153.184 113.592C155.424 111.288 157.408 110.136 159.136 110.136C160.864 110.136 162.784 111.192 164.896 113.304C167.008 115.416 169.28 116.472 171.712 116.472C174.208 116.472 176.256 115.64 177.856 113.976C179.456 112.312 180.256 110.104 180.256 107.352V71.448C180.256 67.608 180.896 65.144 182.176 64.056C183.648 62.84 185.632 62.232 188.128 62.232Z" fill="#EC4899"/>
<path d="M221.903 115.608H251.471C252.943 115.608 254.031 115.672 254.735 115.8C255.503 115.864 256.367 116.152 257.327 116.664C259.055 117.56 259.919 120.056 259.919 124.152C259.919 128.632 258.735 131.256 256.367 132.024C255.279 132.408 253.615 132.6 251.375 132.6H213.359C208.879 132.6 206.255 131.384 205.487 128.952C205.103 127.928 204.911 126.296 204.911 124.056V70.68C204.911 67.416 205.519 65.208 206.735 64.056C207.951 62.84 210.255 62.232 213.647 62.232H251.471C252.943 62.232 254.031 62.296 254.735 62.424C255.503 62.488 256.367 62.776 257.327 63.288C259.055 64.184 259.919 66.68 259.919 70.776C259.919 75.256 258.735 77.88 256.367 78.648C255.279 79.032 253.615 79.224 251.375 79.224H221.903V88.92H240.911C242.383 88.92 243.471 88.984 244.175 89.112C244.943 89.176 245.807 89.464 246.767 89.976C248.495 90.872 249.359 93.368 249.359 97.464C249.359 101.944 248.143 104.568 245.711 105.336C244.623 105.72 242.959 105.912 240.719 105.912H221.903V115.608Z" fill="#EC4899"/>
<path d="M319.986 120.696C320.946 123 321.426 124.664 321.426 125.688C321.426 128.12 319.442 130.168 315.474 131.832C313.426 132.728 311.762 133.176 310.482 133.176C309.266 133.176 308.242 132.888 307.41 132.312C306.642 131.672 306.066 131.032 305.682 130.392C305.042 129.176 302.546 123.384 298.194 113.016L295.218 113.208H283.122V124.056C283.122 125.528 283.058 126.648 282.93 127.416C282.866 128.12 282.578 128.952 282.066 129.912C281.17 131.64 278.674 132.504 274.578 132.504C270.098 132.504 267.474 131.32 266.706 128.952C266.322 127.864 266.13 126.2 266.13 123.96V70.68C266.13 69.208 266.162 68.12 266.226 67.416C266.354 66.648 266.674 65.784 267.186 64.824C268.082 63.096 270.578 62.232 274.674 62.232H295.41C301.042 62.232 306.514 64.28 311.826 68.376C314.386 70.36 316.498 73.048 318.162 76.44C319.826 79.832 320.658 83.608 320.658 87.768C320.658 95 318.258 100.952 313.458 105.624C314.866 109.016 317.042 114.04 319.986 120.696ZM283.122 96.216H295.41C297.266 96.216 299.122 95.512 300.978 94.104C302.834 92.696 303.762 90.584 303.762 87.768C303.762 84.952 302.834 82.84 300.978 81.432C299.122 79.96 297.202 79.224 295.218 79.224H283.122V96.216Z" fill="#EC4899"/>
<path d="M343.685 115.608H373.253C374.725 115.608 375.813 115.672 376.517 115.8C377.285 115.864 378.148 116.152 379.108 116.664C380.836 117.56 381.701 120.056 381.701 124.152C381.701 128.632 380.516 131.256 378.148 132.024C377.06 132.408 375.396 132.6 373.156 132.6H335.141C330.661 132.6 328.036 131.384 327.268 128.952C326.884 127.928 326.693 126.296 326.693 124.056V70.68C326.693 67.416 327.301 65.208 328.517 64.056C329.733 62.84 332.036 62.232 335.428 62.232H373.253C374.725 62.232 375.813 62.296 376.517 62.424C377.285 62.488 378.148 62.776 379.108 63.288C380.836 64.184 381.701 66.68 381.701 70.776C381.701 75.256 380.516 77.88 378.148 78.648C377.06 79.032 375.396 79.224 373.156 79.224H343.685V88.92H362.693C364.165 88.92 365.253 88.984 365.957 89.112C366.725 89.176 367.588 89.464 368.548 89.976C370.276 90.872 371.141 93.368 371.141 97.464C371.141 101.944 369.924 104.568 367.492 105.336C366.404 105.72 364.74 105.912 362.5 105.912H343.685V115.608Z" fill="#EC4899"/>
<path d="M388.967 122.712C387.303 120.664 386.471 118.84 386.471 117.24C386.471 115.576 387.847 113.4 390.599 110.712C392.199 109.176 393.895 108.408 395.687 108.408C397.479 108.408 399.975 110.008 403.175 113.208C404.071 114.296 405.351 115.352 407.015 116.376C408.679 117.336 410.215 117.816 411.623 117.816C417.575 117.816 420.551 115.384 420.551 110.52C420.551 109.048 419.719 107.832 418.055 106.872C416.455 105.848 414.439 105.112 412.007 104.664C409.575 104.216 406.951 103.512 404.135 102.552C401.319 101.528 398.695 100.344 396.263 99C393.831 97.656 391.783 95.544 390.119 92.664C388.519 89.72 387.719 86.2 387.719 82.104C387.719 76.472 389.799 71.576 393.959 67.416C398.183 63.192 403.911 61.08 411.143 61.08C414.983 61.08 418.471 61.592 421.607 62.616C424.807 63.576 427.015 64.568 428.231 65.592L430.631 67.416C432.615 69.272 433.607 70.84 433.607 72.12C433.607 73.4 432.839 75.16 431.303 77.4C429.127 80.6 426.887 82.2 424.583 82.2C423.239 82.2 421.575 81.56 419.591 80.28C419.399 80.152 419.015 79.832 418.439 79.32C417.927 78.808 417.447 78.392 416.999 78.072C415.655 77.24 413.927 76.824 411.815 76.824C409.767 76.824 408.039 77.336 406.631 78.36C405.287 79.32 404.615 80.696 404.615 82.488C404.615 84.216 405.415 85.624 407.015 86.712C408.679 87.8 410.727 88.536 413.159 88.92C415.591 89.304 418.247 89.912 421.127 90.744C424.007 91.512 426.663 92.472 429.095 93.624C431.527 94.776 433.543 96.792 435.143 99.672C436.807 102.488 437.639 105.976 437.639 110.136C437.639 114.296 436.807 117.976 435.143 121.176C433.479 124.312 431.303 126.744 428.615 128.472C423.431 131.864 417.895 133.56 412.007 133.56C408.999 133.56 406.151 133.208 403.463 132.504C400.775 131.736 398.599 130.808 396.935 129.72C393.543 127.672 391.175 125.688 389.831 123.768L388.967 122.712Z" fill="#EC4899"/>
<path d="M51.648 247.304C51.648 251.208 50.656 254.12 48.672 256.04C46.752 257.896 44.608 258.824 42.24 258.824H19.488C19.488 260.616 20.544 262.12 22.656 263.336C24.768 264.552 26.88 265.16 28.992 265.16C32.704 265.16 35.616 264.776 37.728 264.008L38.784 263.624C40.32 262.92 41.6 262.568 42.624 262.568C44.672 262.568 46.432 264.008 47.904 266.888C48.736 268.616 49.152 270.088 49.152 271.304C49.152 277 42.336 279.848 28.704 279.848C23.968 279.848 19.744 279.048 16.032 277.448C12.384 275.784 9.536 273.608 7.488 270.92C3.456 265.736 1.44 259.944 1.44 253.544C1.44 245.48 4.032 239.048 9.216 234.248C14.464 229.384 20.992 226.952 28.8 226.952C37.696 226.952 44.224 230.088 48.384 236.36C50.56 239.688 51.648 243.336 51.648 247.304ZM31.392 250.088C33.824 250.088 35.04 249.064 35.04 247.016C35.04 245.544 34.464 244.36 33.312 243.464C32.224 242.568 30.624 242.12 28.512 242.12C26.464 242.12 24.416 242.984 22.368 244.712C20.32 246.376 19.296 248.168 19.296 250.088H31.392Z" fill="#F97316"/>
<path d="M57.9113 212.648C57.9113 211.176 57.9433 210.088 58.0073 209.384C58.1353 208.616 58.4233 207.752 58.8713 206.792C59.7673 205.064 62.2633 204.2 66.3593 204.2C70.2633 204.2 72.6953 205.064 73.6553 206.792C74.1673 207.752 74.4552 208.616 74.5192 209.384C74.6472 210.152 74.7113 211.272 74.7113 212.744V257.192C74.7113 259.496 74.9033 260.968 75.2873 261.608C75.6713 262.184 76.5032 262.472 77.7832 262.472C79.1272 262.472 80.0233 262.536 80.4713 262.664C80.9193 262.728 81.4633 262.984 82.1033 263.432C83.3833 264.264 84.0233 266.536 84.0233 270.248C84.0233 274.28 83.3833 276.744 82.1033 277.64C80.4393 278.792 76.4712 278.984 70.1992 278.216C65.2712 277.576 62.0713 275.944 60.5993 273.32C58.8073 270.184 57.9113 265.192 57.9113 258.344V212.648Z" fill="#F97316"/>
<path d="M188.383 210.92C188.895 211.88 189.183 212.744 189.247 213.512C189.375 214.28 189.439 215.4 189.439 216.872V270.152C189.439 274.568 188.223 277.16 185.791 277.928C184.575 278.312 183.039 278.504 181.183 278.504C179.327 278.504 177.855 278.344 176.767 278.024C175.679 277.704 174.847 277.32 174.271 276.872C173.695 276.424 173.247 275.784 172.927 274.952C172.607 273.864 172.447 272.2 172.447 269.96V237.8C170.847 239.784 168.511 242.952 165.439 247.304C162.367 251.592 160.415 254.28 159.583 255.368C158.751 256.456 158.175 257.224 157.855 257.672C157.535 258.056 156.735 258.632 155.455 259.4C154.239 260.104 152.895 260.456 151.423 260.456C150.015 260.456 148.703 260.136 147.487 259.496C146.335 258.792 145.503 258.12 144.991 257.48L144.223 256.424C142.943 254.824 140.415 251.432 136.639 246.248C132.863 241 130.815 238.184 130.495 237.8V270.152C130.495 271.624 130.431 272.744 130.303 273.512C130.239 274.216 129.951 275.016 129.439 275.912C128.479 277.64 125.983 278.504 121.951 278.504C118.047 278.504 115.615 277.64 114.655 275.912C114.143 275.016 113.823 274.184 113.695 273.416C113.631 272.648 113.599 271.496 113.599 269.96V216.68C113.599 215.208 113.631 214.12 113.695 213.416C113.823 212.648 114.143 211.784 114.655 210.824C115.615 209.16 118.111 208.328 122.143 208.328C123.871 208.328 125.343 208.552 126.559 209C127.839 209.384 128.671 209.8 129.055 210.248L129.631 210.824L151.423 239.432C162.303 225.032 169.567 215.528 173.215 210.92C174.303 209.192 176.863 208.328 180.895 208.328C184.991 208.328 187.487 209.192 188.383 210.92Z" fill="#F97316"/>
<path d="M243.114 210.824C243.754 209.8 244.682 209.096 245.898 208.712C247.114 208.328 248.618 208.136 250.41 208.136C252.266 208.136 253.738 208.296 254.826 208.616C255.914 208.936 256.746 209.32 257.322 209.768C257.898 210.216 258.314 210.888 258.57 211.784C258.954 212.872 259.146 214.536 259.146 216.776V245.768C259.146 254.216 256.522 261.896 251.274 268.808C248.714 272.072 245.418 274.728 241.386 276.776C237.354 278.76 232.874 279.752 227.946 279.752C223.082 279.752 218.634 278.728 214.602 276.68C210.634 274.632 207.402 271.944 204.906 268.616C199.722 261.832 197.13 254.152 197.13 245.576V216.68C197.13 215.144 197.162 214.024 197.226 213.32C197.354 212.552 197.674 211.688 198.186 210.728C198.698 209.768 199.562 209.096 200.778 208.712C201.994 208.328 203.626 208.136 205.674 208.136C207.722 208.136 209.354 208.328 210.57 208.712C211.786 209.096 212.618 209.768 213.066 210.728C213.834 212.2 214.218 214.216 214.218 216.776V245.576C214.218 249.48 215.178 253.192 217.098 256.712C218.058 258.504 219.498 259.944 221.418 261.032C223.338 262.12 225.61 262.664 228.234 262.664C232.906 262.664 236.394 260.936 238.698 257.48C241.002 254.024 242.154 250.024 242.154 245.48V216.104C242.154 213.608 242.474 211.848 243.114 210.824Z" fill="#F97316"/>
<path d="M312.194 211.208C312.834 210.056 313.762 209.288 314.978 208.904C316.194 208.52 317.698 208.328 319.49 208.328C321.346 208.328 322.818 208.488 323.906 208.808C325.058 209.128 325.89 209.512 326.402 209.96C326.978 210.408 327.394 211.08 327.65 211.976C328.034 213 328.226 214.632 328.226 216.872V270.152C328.226 271.688 328.162 272.808 328.034 273.512C327.97 274.216 327.682 275.048 327.17 276.008C326.274 277.736 323.778 278.6 319.682 278.6C317.186 278.6 315.458 278.408 314.498 278.024C313.538 277.64 312.738 277.032 312.098 276.2C297.698 257 288.226 244.456 283.682 238.568V270.152C283.682 271.688 283.618 272.808 283.49 273.512C283.426 274.216 283.138 275.048 282.626 276.008C281.73 277.736 279.234 278.6 275.138 278.6C271.17 278.6 268.738 277.736 267.842 276.008C267.33 275.048 267.01 274.184 266.882 273.416C266.818 272.648 266.786 271.528 266.786 270.056V216.488C266.786 214.056 267.074 212.296 267.65 211.208C268.29 210.056 269.218 209.288 270.434 208.904C271.65 208.52 273.218 208.328 275.138 208.328C277.058 208.328 278.562 208.52 279.65 208.904C280.802 209.224 281.602 209.608 282.05 210.056C282.306 210.248 283.042 211.08 284.258 212.552C297.762 230.92 306.786 243.048 311.33 248.936V216.488C311.33 214.056 311.618 212.296 312.194 211.208Z" fill="#F97316"/>
<path d="M344.424 208.136L362.184 208.232C371.464 208.232 379.624 211.592 386.664 218.312C393.704 224.968 397.224 233.192 397.224 242.984C397.224 252.712 393.768 261.064 386.856 268.04C380.008 275.016 371.688 278.504 361.896 278.504H344.328C340.424 278.504 337.992 277.704 337.032 276.104C336.264 274.76 335.88 272.712 335.88 269.96V216.584C335.88 215.048 335.912 213.928 335.976 213.224C336.104 212.52 336.424 211.688 336.936 210.728C337.832 209 340.328 208.136 344.424 208.136ZM362.184 261.512C366.792 261.512 370.952 259.816 374.664 256.424C378.376 252.968 380.232 248.648 380.232 243.464C380.232 238.28 378.408 233.96 374.76 230.504C371.176 226.984 366.952 225.224 362.088 225.224H352.872V261.512H362.184Z" fill="#F97316"/>
<path d="M436.498 207.368C445.97 207.368 454.194 210.792 461.17 217.64C468.146 224.488 471.634 233 471.634 243.176C471.634 253.288 468.306 261.928 461.65 269.096C454.994 276.2 446.802 279.752 437.074 279.752C427.346 279.752 419.058 276.232 412.21 269.192C405.426 262.152 402.034 253.768 402.034 244.04C402.034 238.728 402.994 233.768 404.914 229.16C406.834 224.488 409.394 220.584 412.594 217.448C415.794 214.312 419.474 211.848 423.634 210.056C427.794 208.264 432.082 207.368 436.498 207.368ZM419.026 243.56C419.026 249.256 420.85 253.896 424.498 257.48C428.21 261 432.338 262.76 436.882 262.76C441.426 262.76 445.522 261.032 449.17 257.576C452.818 254.12 454.642 249.48 454.642 243.656C454.642 237.832 452.786 233.16 449.074 229.64C445.426 226.12 441.33 224.36 436.786 224.36C432.242 224.36 428.146 226.152 424.498 229.736C420.85 233.256 419.026 237.864 419.026 243.56Z" fill="#F97316"/>
<path d="M477.623 263.528C478.199 262.504 479.127 261.8 480.407 261.416C481.687 260.968 483.735 260.744 486.551 260.744C489.367 260.744 491.383 261.384 492.599 262.664C493.879 263.88 494.519 266.28 494.519 269.864C494.519 271.208 494.423 272.456 494.231 273.608C493.655 279.048 491.863 283.784 488.855 287.816C485.847 291.848 482.327 293.864 478.295 293.864C477.847 293.864 477.431 293.512 477.047 292.808C476.727 292.168 476.567 291.304 476.567 290.216C476.567 289.192 476.695 288.36 476.951 287.72C477.271 287.08 477.655 286.664 478.103 286.472C478.551 286.344 478.999 286.088 479.447 285.704C479.959 285.384 480.631 284.552 481.463 283.208C482.295 281.864 482.775 280.328 482.903 278.6C480.855 278.344 479.255 277.672 478.103 276.584C477.015 275.432 476.471 273.608 476.471 271.112C476.535 268.552 476.599 266.92 476.663 266.216C476.791 265.448 477.111 264.552 477.623 263.528Z" fill="#F97316"/>
</svg>
