<svg width="498" height="430" viewBox="0 0 498 430" fill="none" xmlns="http://www.w3.org/2000/svg">
<path d="M61.6407 5.25758C62.0535 6.03075 62.2856 6.7266 62.3372 7.34514C62.4404 7.96368 62.492 8.86572 62.492 10.0512V52.9623C62.492 56.5189 61.5117 58.6065 59.5512 59.225C58.5709 59.5343 57.3327 59.6889 55.8365 59.6889C54.3403 59.6889 53.1537 59.5601 52.2766 59.3023C51.3995 59.0446 50.7288 58.7354 50.2645 58.3745C49.8001 58.0137 49.439 57.4983 49.181 56.8282C48.923 55.9519 48.7941 54.6118 48.7941 52.8077V26.9064C47.5042 28.5043 45.6211 31.0558 43.1446 34.5608C40.6682 38.0143 39.0946 40.1792 38.4239 41.0555C37.7532 41.9317 37.2888 42.5503 37.0309 42.9111C36.7729 43.2204 36.128 43.6843 35.0961 44.3028C34.1159 44.8698 33.0324 45.1533 31.8458 45.1533C30.7107 45.1533 29.6531 44.8956 28.6728 44.3801C27.7441 43.8131 27.0734 43.2719 26.6607 42.7565L26.0416 41.906C25.0097 40.6173 22.9718 37.8855 19.9278 33.7103C16.8838 29.4837 15.2328 27.2157 14.9749 26.9064V52.9623C14.9749 54.1479 14.9233 55.0499 14.8201 55.6684C14.7685 56.2354 14.5363 56.8797 14.1236 57.6014C13.3497 58.9931 11.3376 59.6889 8.0872 59.6889C4.94003 59.6889 2.97949 58.9931 2.2056 57.6014C1.79286 56.8797 1.53489 56.2097 1.43171 55.5911C1.38011 54.9726 1.35432 54.0448 1.35432 52.8077V9.89661C1.35432 8.71108 1.38011 7.83482 1.43171 7.26783C1.53489 6.64929 1.79286 5.95343 2.2056 5.18026C2.97949 3.84009 4.99162 3.17001 8.24198 3.17001C9.63499 3.17001 10.8216 3.35042 11.8019 3.71123C12.8338 4.0205 13.5045 4.35554 13.814 4.71636L14.2784 5.18026L31.8458 28.2208C40.6166 16.6232 46.4724 8.96881 49.4132 5.25758C50.2903 3.86586 52.354 3.17001 55.6043 3.17001C58.9063 3.17001 60.9184 3.86586 61.6407 5.25758Z" fill="#1A0A2E"/>
<path d="M108.006 34.5608C108.006 37.7051 107.206 40.0503 105.607 41.5967C104.059 43.0915 102.331 43.8389 100.422 43.8389H82.0806C82.0806 45.2822 82.9319 46.4935 84.6345 47.4728C86.337 48.4522 88.0396 48.9418 89.7422 48.9418C92.7345 48.9418 95.082 48.6326 96.7846 48.014L97.6359 47.7048C98.8741 47.1378 99.906 46.8543 100.731 46.8543C102.382 46.8543 103.801 48.014 104.988 50.3335C105.659 51.7253 105.994 52.9108 105.994 53.8901C105.994 58.4776 100.499 60.7714 89.51 60.7714C85.6921 60.7714 82.287 60.1271 79.2946 58.8384C76.3538 57.4983 74.0579 55.7458 72.4069 53.5809C69.1566 49.4057 67.5314 44.7409 67.5314 39.5864C67.5314 33.0918 69.6209 27.9115 73.7999 24.0457C78.0306 20.1283 83.293 18.1696 89.5874 18.1696C96.7588 18.1696 102.021 20.6953 105.375 25.7467C107.129 28.427 108.006 31.365 108.006 34.5608ZM91.6769 36.803C93.6374 36.803 94.6177 35.9783 94.6177 34.3289C94.6177 33.1433 94.1534 32.1898 93.2247 31.4681C92.3476 30.7465 91.0578 30.3857 89.3552 30.3857C87.7042 30.3857 86.0533 31.0815 84.4023 32.4733C82.7513 33.8134 81.9258 35.2567 81.9258 36.803H91.6769Z" fill="#1A0A2E"/>
<path d="M152.369 34.5608C152.369 37.7051 151.569 40.0503 149.97 41.5967C148.422 43.0915 146.694 43.8389 144.785 43.8389H126.444C126.444 45.2822 127.295 46.4935 128.997 47.4728C130.7 48.4522 132.402 48.9418 134.105 48.9418C137.097 48.9418 139.445 48.6326 141.148 48.014L141.999 47.7048C143.237 47.1378 144.269 46.8543 145.094 46.8543C146.745 46.8543 148.164 48.014 149.351 50.3335C150.021 51.7253 150.357 52.9108 150.357 53.8901C150.357 58.4776 144.862 60.7714 133.873 60.7714C130.055 60.7714 126.65 60.1271 123.657 58.8384C120.717 57.4983 118.421 55.7458 116.77 53.5809C113.519 49.4057 111.894 44.7409 111.894 39.5864C111.894 33.0918 113.984 27.9115 118.163 24.0457C122.393 20.1283 127.656 18.1696 133.95 18.1696C141.122 18.1696 146.384 20.6953 149.738 25.7467C151.492 28.427 152.369 31.365 152.369 34.5608ZM136.04 36.803C138 36.803 138.981 35.9783 138.981 34.3289C138.981 33.1433 138.516 32.1898 137.588 31.4681C136.711 30.7465 135.421 30.3857 133.718 30.3857C132.067 30.3857 130.416 31.0815 128.765 32.4733C127.114 33.8134 126.289 35.2567 126.289 36.803H136.04Z" fill="#1A0A2E"/>
<path d="M180.343 32.7052L175.313 32.3959V43.0657C175.313 44.4574 175.52 45.4626 175.932 46.0811C176.397 46.6996 177.222 47.0089 178.409 47.0089C179.647 47.0089 180.576 47.0604 181.195 47.1635C181.865 47.2151 182.562 47.447 183.284 47.8594C184.471 48.5295 185.064 50.2562 185.064 53.0396C185.064 56.287 184.342 58.2715 182.897 58.9931C182.123 59.3539 181.427 59.5858 180.808 59.6889C180.24 59.7405 179.389 59.7663 178.254 59.7663C172.888 59.7663 168.812 58.555 166.026 56.1323C163.24 53.7097 161.847 49.6119 161.847 43.8389V32.3959C160.867 32.5506 159.809 32.6279 158.674 32.6279C157.539 32.6279 156.585 32.1898 155.811 31.3135C155.089 30.4372 154.728 28.9424 154.728 26.8291C154.728 24.7158 154.857 23.1952 155.114 22.2674C155.372 21.288 155.734 20.5922 156.198 20.1798C157.023 19.5097 158.055 19.1747 159.294 19.1747L161.847 19.484V11.5203C161.847 10.3347 161.873 9.45848 161.925 8.89149C162.028 8.32449 162.286 7.70596 162.699 7.03587C163.369 5.74725 165.356 5.10294 168.658 5.10294C172.166 5.10294 174.255 6.05652 174.926 7.96368C175.184 8.7884 175.313 10.1028 175.313 11.9069V19.484C177.583 19.2778 179.286 19.1747 180.421 19.1747C181.607 19.1747 182.485 19.2262 183.052 19.3293C183.671 19.3809 184.368 19.6128 185.142 20.0252C186.483 20.6953 187.154 22.6797 187.154 25.9786C187.154 29.2259 186.457 31.2104 185.064 31.932C184.29 32.2928 183.594 32.5248 182.975 32.6279C182.407 32.6794 181.53 32.7052 180.343 32.7052Z" fill="#1A0A2E"/>
<path d="M234.682 32.7052L229.652 32.3959V43.0657C229.652 44.4574 229.858 45.4626 230.271 46.0811C230.735 46.6996 231.561 47.0089 232.748 47.0089C233.986 47.0089 234.915 47.0604 235.534 47.1635C236.204 47.2151 236.901 47.447 237.623 47.8594C238.81 48.5295 239.403 50.2562 239.403 53.0396C239.403 56.287 238.681 58.2715 237.236 58.9931C236.462 59.3539 235.766 59.5858 235.147 59.6889C234.579 59.7405 233.728 59.7663 232.593 59.7663C227.227 59.7663 223.151 58.555 220.365 56.1323C217.579 53.7097 216.186 49.6119 216.186 43.8389V32.3959C215.206 32.5506 214.148 32.6279 213.013 32.6279C211.878 32.6279 210.924 32.1898 210.15 31.3135C209.428 30.4372 209.066 28.9424 209.066 26.8291C209.066 24.7158 209.195 23.1952 209.453 22.2674C209.711 21.288 210.072 20.5922 210.537 20.1798C211.362 19.5097 212.394 19.1747 213.632 19.1747L216.186 19.484V11.5203C216.186 10.3347 216.212 9.45848 216.264 8.89149C216.367 8.32449 216.625 7.70596 217.038 7.03587C217.708 5.74725 219.695 5.10294 222.997 5.10294C226.505 5.10294 228.594 6.05652 229.265 7.96368C229.523 8.7884 229.652 10.1028 229.652 11.9069V19.484C231.922 19.2778 233.625 19.1747 234.76 19.1747C235.946 19.1747 236.823 19.2262 237.391 19.3293C238.01 19.3809 238.707 19.6128 239.48 20.0252C240.822 20.6953 241.493 22.6797 241.493 25.9786C241.493 29.2259 240.796 31.2104 239.403 31.932C238.629 32.2928 237.933 32.5248 237.314 32.6279C236.746 32.6794 235.869 32.7052 234.682 32.7052Z" fill="#1A0A2E"/>
<path d="M268.364 19.1747C273.523 19.1747 277.805 21.1334 281.21 25.0508C284.667 28.9682 286.395 33.7619 286.395 39.4318V53.0396C286.395 54.2252 286.344 55.1272 286.241 55.7458C286.189 56.3128 285.957 56.9828 285.544 57.756C284.873 59.0962 282.887 59.7663 279.585 59.7663C276.438 59.7663 274.477 59.0962 273.704 57.756C273.291 56.9828 273.033 56.287 272.93 55.6684C272.878 55.0499 272.852 54.1221 272.852 52.885V39.3545C272.852 37.2412 272.259 35.5917 271.072 34.4062C269.886 33.2207 268.364 32.6279 266.506 32.6279C264.701 32.6279 263.101 33.1949 261.708 34.3289C260.315 35.4113 259.516 36.6484 259.309 38.0401V53.0396C259.309 54.2252 259.258 55.1272 259.154 55.7458C259.103 56.3128 258.871 56.9828 258.458 57.756C257.787 59.0962 255.801 59.7663 252.499 59.7663C249.248 59.7663 247.262 59.0704 246.54 57.6787C246.179 56.9055 245.947 56.2354 245.843 55.6684C245.792 55.1014 245.766 54.1994 245.766 52.9623V6.7266C245.766 5.54107 245.792 4.66481 245.843 4.09782C245.947 3.47928 246.179 2.80919 246.54 2.08757C247.262 0.695856 249.274 0 252.576 0C255.827 0 257.787 0.695856 258.458 2.08757C258.871 2.86074 259.103 3.5566 259.154 4.17513C259.258 4.74213 259.309 5.61839 259.309 6.80392V23.891C261.889 20.7468 264.907 19.1747 268.364 19.1747Z" fill="#1A0A2E"/>
<path d="M331.937 34.5608C331.937 37.7051 331.137 40.0503 329.538 41.5967C327.99 43.0915 326.262 43.8389 324.353 43.8389H306.011C306.011 45.2822 306.863 46.4935 308.565 47.4728C310.268 48.4522 311.97 48.9418 313.673 48.9418C316.665 48.9418 319.013 48.6326 320.715 48.014L321.567 47.7048C322.805 47.1378 323.837 46.8543 324.662 46.8543C326.313 46.8543 327.732 48.014 328.919 50.3335C329.589 51.7253 329.925 52.9108 329.925 53.8901C329.925 58.4776 324.43 60.7714 313.441 60.7714C309.623 60.7714 306.218 60.1271 303.225 58.8384C300.284 57.4983 297.989 55.7458 296.338 53.5809C293.087 49.4057 291.462 44.7409 291.462 39.5864C291.462 33.0918 293.552 27.9115 297.731 24.0457C301.961 20.1283 307.224 18.1696 313.518 18.1696C320.689 18.1696 325.952 20.6953 329.305 25.7467C331.06 28.427 331.937 31.365 331.937 34.5608ZM315.608 36.803C317.568 36.803 318.548 35.9783 318.548 34.3289C318.548 33.1433 318.084 32.1898 317.155 31.4681C316.278 30.7465 314.988 30.3857 313.286 30.3857C311.635 30.3857 309.984 31.0815 308.333 32.4733C306.682 33.8134 305.856 35.2567 305.856 36.803H315.608Z" fill="#1A0A2E"/>
<path d="M1.66387 225.264C0.683607 224.645 0.193474 223.666 0.193474 222.326C0.193474 220.986 1.17374 218.95 3.13427 216.218C3.7018 215.341 4.60467 214.903 5.84291 214.903C7.13273 214.903 8.86109 215.548 11.028 216.836C13.1949 218.073 15.1554 218.692 16.9096 218.692C20.0568 218.692 21.6304 218.073 21.6304 216.836C21.6304 215.857 19.902 215.135 16.4453 214.671C13.1949 214.207 9.97034 212.996 6.77158 211.037C5.27538 210.11 4.03715 208.666 3.05688 206.708C2.07662 204.697 1.58648 202.326 1.58648 199.595C1.58648 191.45 7.18432 187.378 18.38 187.378C22.0431 187.378 25.8094 188.255 29.6789 190.007C31.4846 190.832 32.3875 191.863 32.3875 193.1C32.3875 194.337 31.82 195.858 30.6849 197.662C29.5499 199.466 28.389 200.368 27.2024 200.368C26.5833 200.368 25.4224 199.981 23.7199 199.208C22.0689 198.435 20.2631 198.048 18.3026 198.048C15.2586 198.048 13.7366 198.615 13.7366 199.749C13.7366 201.296 15.4908 202.301 18.9991 202.765C22.4043 203.125 25.7062 204.105 28.905 205.703C30.4012 206.424 31.6394 207.687 32.6197 209.491C33.6515 211.244 34.1674 213.46 34.1674 216.14C34.1674 218.821 33.6515 221.115 32.6197 223.022C31.6394 224.877 30.2464 226.269 28.4406 227.197C25.1387 228.795 20.9854 229.594 15.9809 229.594C11.028 229.594 6.25565 228.15 1.66387 225.264Z" fill="#A855F7"/>
<path d="M61.8154 188.306C66.9747 188.306 71.257 190.265 74.6621 194.182C78.1188 198.1 79.8472 202.893 79.8472 208.563V222.171C79.8472 223.357 79.7956 224.259 79.6924 224.877C79.6408 225.444 79.4086 226.114 78.9959 226.888C78.3252 228.228 76.3389 228.898 73.0369 228.898C69.8897 228.898 67.9292 228.228 67.1553 226.888C66.7426 226.114 66.4846 225.418 66.3814 224.8C66.3298 224.181 66.304 223.254 66.304 222.017V208.486C66.304 206.373 65.7107 204.723 64.5241 203.538C63.3374 202.352 61.8154 201.759 59.9581 201.759C58.1523 201.759 56.553 202.326 55.1599 203.46C53.7669 204.543 52.9672 205.78 52.7609 207.172V222.171C52.7609 223.357 52.7093 224.259 52.6061 224.877C52.5545 225.444 52.3223 226.114 51.9096 226.888C51.2389 228.228 49.2526 228.898 45.9506 228.898C42.7002 228.898 40.7139 228.202 39.9916 226.81C39.6305 226.037 39.3983 225.367 39.2951 224.8C39.2435 224.233 39.2177 223.331 39.2177 222.094V175.858C39.2177 174.673 39.2435 173.796 39.2951 173.229C39.3983 172.611 39.6305 171.941 39.9916 171.219C40.7139 169.827 42.726 169.132 46.028 169.132C49.2783 169.132 51.2389 169.827 51.9096 171.219C52.3223 171.992 52.5545 172.688 52.6061 173.307C52.7093 173.874 52.7609 174.75 52.7609 175.935V193.023C55.3405 189.878 58.3587 188.306 61.8154 188.306Z" fill="#A855F7"/>
<path d="M112.542 192.481C112.851 189.595 114.889 188.152 118.656 188.152C120.668 188.152 122.164 188.306 123.144 188.615C124.124 188.925 124.795 189.466 125.156 190.239C125.569 191.012 125.801 191.708 125.853 192.327C125.956 192.894 126.008 193.77 126.008 194.956V222.017C126.008 223.202 125.956 224.104 125.853 224.723C125.801 225.29 125.595 225.96 125.234 226.733C124.511 228.073 122.731 228.743 119.894 228.743C117.108 228.743 115.225 228.408 114.244 227.738C113.316 227.016 112.774 225.986 112.619 224.645C110.71 227.377 107.512 228.743 103.023 228.743C98.5859 228.743 94.4585 226.707 90.6406 222.635C86.8227 218.563 84.9138 213.847 84.9138 208.486C84.9138 203.074 86.8227 198.357 90.6406 194.337C94.5101 190.265 98.7407 188.229 103.332 188.229C105.087 188.229 106.686 188.538 108.131 189.157C109.575 189.775 110.581 190.368 111.149 190.935C111.716 191.45 112.181 191.966 112.542 192.481ZM98.4569 208.563C98.4569 210.264 99.1276 211.811 100.469 213.202C101.81 214.543 103.436 215.213 105.345 215.213C107.254 215.213 108.827 214.517 110.065 213.125C111.355 211.733 112 210.213 112 208.563C112 206.862 111.381 205.29 110.143 203.847C108.956 202.404 107.331 201.682 105.267 201.682C103.255 201.682 101.604 202.404 100.314 203.847C99.0761 205.29 98.4569 206.862 98.4569 208.563Z" fill="#A855F7"/>
<path d="M132.176 239.954V194.801C132.176 193.615 132.202 192.739 132.253 192.172C132.356 191.605 132.589 190.961 132.95 190.239C133.672 188.847 135.4 188.152 138.135 188.152C140.869 188.152 142.701 188.512 143.629 189.234C144.61 189.904 145.177 190.909 145.332 192.249C147.293 189.569 150.362 188.229 154.541 188.229C158.772 188.229 162.77 190.213 166.537 194.182C170.303 198.151 172.186 202.765 172.186 208.022C172.186 213.28 170.303 217.893 166.537 221.862C162.822 225.831 158.849 227.815 154.619 227.815C150.388 227.815 147.318 226.63 145.409 224.259V239.877C145.409 241.062 145.358 241.939 145.255 242.506C145.203 243.073 144.971 243.717 144.558 244.439C144.197 245.212 143.552 245.753 142.623 246.062C141.695 246.371 140.431 246.526 138.831 246.526C137.232 246.526 135.942 246.371 134.962 246.062C134.033 245.753 133.362 245.237 132.95 244.516C132.589 243.794 132.356 243.15 132.253 242.583C132.202 242.016 132.176 241.14 132.176 239.954ZM147.499 203.538C146.312 204.929 145.719 206.45 145.719 208.099C145.719 209.749 146.312 211.269 147.499 212.661C148.737 214.001 150.285 214.671 152.142 214.671C154.051 214.671 155.651 214.001 156.94 212.661C158.282 211.321 158.953 209.8 158.953 208.099C158.953 206.398 158.333 204.878 157.095 203.538C155.857 202.146 154.232 201.45 152.22 201.45C150.259 201.45 148.686 202.146 147.499 203.538Z" fill="#A855F7"/>
<path d="M177.219 194.956C177.219 193.77 177.245 192.894 177.296 192.327C177.399 191.708 177.632 191.012 177.993 190.239C178.715 188.899 180.727 188.229 184.029 188.229C186.506 188.229 188.26 188.667 189.292 189.543C190.169 190.265 190.633 191.373 190.685 192.868C190.736 193.383 190.762 194.131 190.762 195.11V222.171C190.762 223.357 190.71 224.259 190.607 224.877C190.556 225.444 190.323 226.114 189.911 226.888C189.24 228.228 187.254 228.898 183.952 228.898C180.701 228.898 178.715 228.202 177.993 226.81C177.632 226.037 177.399 225.367 177.296 224.8C177.245 224.233 177.219 223.331 177.219 222.094V194.956ZM189.911 180.652C189.55 181.373 188.879 181.889 187.899 182.198C186.918 182.507 185.603 182.662 183.952 182.662C182.352 182.662 181.063 182.507 180.082 182.198C179.102 181.889 178.405 181.348 177.993 180.574C177.632 179.801 177.399 179.131 177.296 178.564C177.245 177.946 177.219 177.044 177.219 175.858C177.219 174.673 177.245 173.796 177.296 173.229C177.399 172.611 177.632 171.941 177.993 171.219C178.715 169.827 180.727 169.132 184.029 169.132C187.279 169.132 189.24 169.827 189.911 171.219C190.323 171.992 190.556 172.688 190.607 173.307C190.71 173.874 190.762 174.75 190.762 175.935C190.762 177.121 190.71 178.023 190.607 178.642C190.556 179.209 190.323 179.879 189.911 180.652Z" fill="#A855F7"/>
<path d="M219.619 188.152C224.779 188.152 229.061 190.136 232.466 194.105C235.923 198.022 237.651 202.816 237.651 208.486V222.094C237.651 223.279 237.599 224.181 237.496 224.8C237.445 225.367 237.238 226.011 236.877 226.733C236.155 228.125 234.143 228.82 230.841 228.82C227.178 228.82 225.062 227.867 224.495 225.96C224.185 225.083 224.03 223.769 224.03 222.017V208.409C224.03 206.295 223.411 204.646 222.173 203.46C220.986 202.275 219.361 201.682 217.298 201.682C215.285 201.682 213.634 202.301 212.345 203.538C211.106 204.775 210.487 206.398 210.487 208.409V222.094C210.487 223.279 210.436 224.181 210.332 224.8C210.281 225.367 210.049 226.011 209.636 226.733C208.965 228.125 206.979 228.82 203.677 228.82C200.427 228.82 198.44 228.125 197.718 226.733C197.357 225.96 197.125 225.29 197.021 224.723C196.97 224.104 196.944 223.202 196.944 222.017V194.646C196.944 193.512 196.97 192.662 197.021 192.095C197.125 191.476 197.383 190.806 197.795 190.085C198.518 188.796 200.504 188.152 203.754 188.152C206.902 188.152 208.836 188.744 209.559 189.93C210.075 190.806 210.332 191.863 210.332 193.1C210.539 192.739 211.003 192.224 211.725 191.554C212.448 190.883 213.144 190.342 213.815 189.93C215.569 188.744 217.504 188.152 219.619 188.152Z" fill="#A855F7"/>
<path d="M269.725 223.795C267.764 226.372 264.643 227.661 260.361 227.661C256.078 227.661 252.054 225.702 248.288 221.785C244.573 217.816 242.716 213.202 242.716 207.945C242.716 202.687 244.599 198.074 248.365 194.105C252.131 190.136 256.259 188.152 260.747 188.152C262.502 188.152 264.101 188.487 265.546 189.157C266.99 189.775 267.97 190.368 268.486 190.935C269.054 191.45 269.492 191.94 269.802 192.404C269.957 190.961 270.473 189.878 271.35 189.157C272.278 188.384 273.749 187.997 275.761 187.997C277.773 187.997 279.244 188.152 280.172 188.461C281.101 188.77 281.746 189.311 282.107 190.085C282.52 190.806 282.752 191.45 282.803 192.017C282.907 192.584 282.958 193.461 282.958 194.646V226.656C282.958 232.583 280.895 237.351 276.767 240.959C272.64 244.619 267.996 246.449 262.837 246.449C258.916 246.449 255.175 245.495 251.616 243.588C248.056 241.681 246.276 239.954 246.276 238.408C246.276 236.398 247.05 234.619 248.597 233.073C249.578 231.99 250.326 231.243 250.842 230.831C251.409 230.418 252.054 230.212 252.776 230.212C253.499 230.212 254.247 230.521 255.021 231.14C257.497 233.047 260.18 234.001 263.069 234.001C265.03 234.001 266.629 233.228 267.867 231.681C269.106 230.135 269.725 228.279 269.725 226.114V223.795ZM255.949 208.022C255.949 209.672 256.594 211.166 257.884 212.507C259.225 213.847 260.825 214.517 262.682 214.517C264.591 214.517 266.165 213.847 267.403 212.507C268.641 211.115 269.26 209.62 269.26 208.022C269.26 206.373 268.667 204.852 267.48 203.46C266.294 202.017 264.694 201.296 262.682 201.296C260.67 201.296 259.045 201.991 257.807 203.383C256.568 204.775 255.949 206.321 255.949 208.022Z" fill="#A855F7"/>
<path d="M307.56 208.563C307.56 202.378 309.727 197.275 314.06 193.255C318.394 189.234 323.347 187.224 328.919 187.224C334.491 187.224 339.418 189.234 343.701 193.255C347.983 197.223 350.124 202.301 350.124 208.486C350.124 212.764 349.015 216.579 346.796 219.929C344.578 223.228 341.869 225.676 338.67 227.274C335.523 228.82 332.247 229.594 328.842 229.594C325.437 229.594 322.135 228.769 318.936 227.119C315.737 225.418 313.028 222.944 310.81 219.697C308.643 216.398 307.56 212.687 307.56 208.563ZM323.734 214.13C325.385 215.367 327.062 215.986 328.764 215.986C330.467 215.986 332.17 215.341 333.872 214.053C335.575 212.764 336.426 210.857 336.426 208.331C336.426 205.806 335.626 203.924 334.027 202.687C332.427 201.45 330.699 200.832 328.842 200.832C326.984 200.832 325.256 201.476 323.657 202.765C322.057 204.053 321.258 205.96 321.258 208.486C321.258 210.96 322.083 212.842 323.734 214.13Z" fill="#A855F7"/>
<path d="M373.233 228.743C368.022 228.743 363.688 226.784 360.232 222.867C356.826 218.898 355.124 214.079 355.124 208.409V194.878C355.124 193.641 355.15 192.739 355.201 192.172C355.305 191.605 355.537 190.935 355.898 190.162C356.62 188.77 358.632 188.074 361.934 188.074C365.546 188.074 367.661 189.054 368.28 191.012C368.59 191.837 368.744 193.151 368.744 194.956V208.486C368.744 210.599 369.338 212.249 370.524 213.434C371.763 214.62 373.388 215.213 375.4 215.213C377.464 215.213 379.115 214.594 380.353 213.357C381.643 212.12 382.288 210.496 382.288 208.486V194.801C382.288 193.615 382.313 192.739 382.365 192.172C382.468 191.554 382.726 190.858 383.139 190.085C383.81 188.744 385.796 188.074 389.098 188.074C392.348 188.074 394.335 188.77 395.057 190.162C395.418 190.935 395.624 191.631 395.676 192.249C395.779 192.816 395.831 193.693 395.831 194.878V222.248C395.831 223.382 395.779 224.259 395.676 224.877C395.624 225.444 395.392 226.089 394.979 226.81C394.206 228.15 392.219 228.82 389.021 228.82C385.873 228.82 383.939 228.202 383.216 226.965C382.7 226.089 382.442 225.032 382.442 223.795C382.236 224.156 381.772 224.671 381.049 225.341C380.327 226.011 379.631 226.578 378.96 227.042C377.206 228.176 375.297 228.743 373.233 228.743Z" fill="#A855F7"/>
<path d="M429.762 188.615C430.742 188.925 431.542 189.466 432.161 190.239C432.832 190.961 433.167 192.146 433.167 193.796C433.167 195.445 432.677 197.249 431.697 199.208C430.716 201.167 429.298 202.146 427.44 202.146C426.511 202.146 425.609 201.94 424.732 201.527C423.906 201.115 422.797 200.909 421.404 200.909C420.011 200.909 418.695 201.399 417.457 202.378C416.27 203.357 415.677 204.543 415.677 205.935V222.171C415.677 223.357 415.625 224.259 415.522 224.877C415.471 225.444 415.238 226.114 414.826 226.888C414.052 228.228 412.04 228.898 408.789 228.898C406.313 228.898 404.533 228.46 403.449 227.583C402.624 226.862 402.16 225.754 402.056 224.259C402.056 223.743 402.056 222.996 402.056 222.017V194.878C402.056 193.693 402.082 192.816 402.134 192.249C402.237 191.631 402.469 190.961 402.83 190.239C403.553 188.847 405.565 188.152 408.867 188.152C411.962 188.152 413.897 188.744 414.671 189.93C415.238 190.755 415.522 191.605 415.522 192.481C415.78 192.121 416.141 191.682 416.606 191.167C417.122 190.651 418.179 189.956 419.779 189.079C421.378 188.203 422.771 187.765 423.958 187.765C425.196 187.765 426.228 187.842 427.053 187.997C427.879 188.1 428.782 188.306 429.762 188.615Z" fill="#A855F7"/>
<path d="M27.8215 376.11C28.1311 373.223 30.169 371.78 33.9353 371.78C35.9474 371.78 37.4436 371.935 38.4239 372.244C39.4041 372.553 40.0748 373.095 40.436 373.868C40.8487 374.641 41.0809 375.337 41.1325 375.955C41.2357 376.522 41.2873 377.398 41.2873 378.584V405.645C41.2873 406.831 41.2357 407.733 41.1325 408.351C41.0809 408.918 40.8745 409.588 40.5134 410.361C39.7911 411.702 38.0111 412.372 35.1735 412.372C32.3875 412.372 30.5043 412.037 29.5241 411.367C28.5954 410.645 28.0537 409.614 27.8989 408.274C25.99 411.006 22.7912 412.372 18.3026 412.372C13.8656 412.372 9.73818 410.336 5.92029 406.264C2.10241 402.192 0.193474 397.475 0.193474 392.115C0.193474 386.702 2.10241 381.986 5.92029 377.965C9.78977 373.893 14.0204 371.857 18.6122 371.857C20.3663 371.857 21.9657 372.167 23.4103 372.785C24.8549 373.404 25.861 373.997 26.4285 374.564C26.996 375.079 27.4604 375.594 27.8215 376.11ZM13.7366 392.192C13.7366 393.893 14.4073 395.439 15.7488 396.831C17.0902 398.171 18.7154 398.841 20.6243 398.841C22.5332 398.841 24.1068 398.145 25.3451 396.754C26.6349 395.362 27.2798 393.841 27.2798 392.192C27.2798 390.491 26.6607 388.919 25.4224 387.475C24.2358 386.032 22.6106 385.311 20.5469 385.311C18.5348 385.311 16.8838 386.032 15.594 387.475C14.3557 388.919 13.7366 390.491 13.7366 392.192Z" fill="#1A0A2E"/>
<path d="M70.1306 371.78C75.2899 371.78 79.5721 373.765 82.9772 377.734C86.434 381.651 88.1623 386.445 88.1623 392.115V405.722C88.1623 406.908 88.1107 407.81 88.0075 408.428C87.9559 408.995 87.7496 409.64 87.3884 410.361C86.6661 411.753 84.654 412.449 81.3521 412.449C77.6889 412.449 75.5736 411.495 75.0061 409.588C74.6966 408.712 74.5418 407.398 74.5418 405.645V392.037C74.5418 389.924 73.9227 388.274 72.6844 387.089C71.4978 385.903 69.8726 385.311 67.8089 385.311C65.7968 385.311 64.1458 385.929 62.856 387.166C61.6177 388.403 60.9986 390.027 60.9986 392.037V405.722C60.9986 406.908 60.947 407.81 60.8438 408.428C60.7922 408.995 60.5601 409.64 60.1473 410.361C59.4766 411.753 57.4903 412.449 54.1883 412.449C50.938 412.449 48.9517 411.753 48.2294 410.361C47.8682 409.588 47.636 408.918 47.5328 408.351C47.4813 407.733 47.4555 406.831 47.4555 405.645V378.275C47.4555 377.141 47.4813 376.29 47.5328 375.723C47.636 375.105 47.894 374.435 48.3067 373.713C49.029 372.424 51.0154 371.78 54.2657 371.78C57.4129 371.78 59.3476 372.373 60.0699 373.558C60.5859 374.435 60.8438 375.491 60.8438 376.728C61.0502 376.368 61.5145 375.852 62.2369 375.182C62.9592 374.512 63.6557 373.971 64.3264 373.558C66.0805 372.373 68.0153 371.78 70.1306 371.78Z" fill="#1A0A2E"/>
<path d="M121.706 354.848C122.119 354.074 122.816 353.533 123.796 353.224C124.776 352.915 126.066 352.76 127.665 352.76C129.316 352.76 130.632 352.915 131.612 353.224C132.593 353.533 133.263 354.074 133.624 354.848C134.037 355.621 134.269 356.317 134.321 356.935C134.424 357.502 134.476 358.378 134.476 359.564V405.722C134.476 406.908 134.424 407.81 134.321 408.428C134.269 408.995 134.037 409.64 133.624 410.361C132.851 411.753 130.658 412.449 127.046 412.449C123.486 412.449 121.5 411.186 121.087 408.66C118.92 411.135 115.902 412.372 112.033 412.372C107.389 412.372 103.159 410.361 99.3409 406.341C95.523 402.269 93.6141 397.553 93.6141 392.192C93.6141 386.78 95.523 382.038 99.3409 377.965C103.21 373.893 107.441 371.857 112.033 371.857C115.851 371.857 118.817 373.146 120.933 375.723V359.487C120.933 358.301 120.958 357.425 121.01 356.858C121.113 356.239 121.345 355.569 121.706 354.848ZM109.169 396.831C110.511 398.223 112.136 398.918 114.045 398.918C115.954 398.918 117.527 398.223 118.766 396.831C120.055 395.439 120.7 393.919 120.7 392.269C120.7 390.568 120.081 388.996 118.843 387.553C117.656 386.11 116.031 385.388 113.967 385.388C111.904 385.388 110.253 386.11 109.015 387.553C107.776 388.945 107.157 390.491 107.157 392.192C107.157 393.893 107.828 395.439 109.169 396.831Z" fill="#1A0A2E"/>
<path d="M170.585 365.749C169.656 366.007 168.392 366.136 166.792 366.136C165.193 366.136 163.929 365.981 163 365.672C162.072 365.363 161.401 364.847 160.988 364.126C160.627 363.352 160.395 362.682 160.292 362.115C160.24 361.497 160.214 360.595 160.214 359.409C160.214 358.224 160.24 357.348 160.292 356.781C160.395 356.214 160.627 355.569 160.988 354.848C161.711 353.507 163.697 352.837 166.947 352.837C170.043 352.837 171.978 353.507 172.751 354.848C173.113 355.518 173.319 356.136 173.371 356.703C173.474 357.27 173.525 358.121 173.525 359.255V359.719C173.525 360.853 173.474 361.703 173.371 362.27C173.319 362.837 173.087 363.481 172.674 364.203C172.261 364.925 171.565 365.44 170.585 365.749ZM163.078 372.012C164.058 371.703 165.348 371.548 166.947 371.548C168.547 371.548 169.811 371.703 170.739 372.012C171.668 372.321 172.313 372.863 172.674 373.636C173.087 374.357 173.319 375.027 173.371 375.646C173.474 376.213 173.525 377.089 173.525 378.275V410.129C173.525 416.16 171.436 420.98 167.257 424.588C163.078 428.196 158.486 430 153.481 430C152.295 430 151.418 429.948 150.85 429.845C150.283 429.794 149.638 429.588 148.915 429.227C147.574 428.505 146.903 426.624 146.903 423.583C146.903 420.541 147.471 418.634 148.606 417.861C149.689 417.088 151.186 416.701 153.094 416.701C154.952 416.701 156.603 416.186 158.047 415.155C159.492 414.124 160.214 412.269 160.214 409.588V377.734C160.214 375.929 160.447 374.615 160.911 373.79C161.427 372.914 162.149 372.321 163.078 372.012Z" fill="#1A0A2E"/>
<path d="M178.552 392.192C178.552 386.006 180.719 380.904 185.053 376.883C189.387 372.863 194.339 370.852 199.911 370.852C205.484 370.852 210.411 372.863 214.693 376.883C218.975 380.852 221.116 385.929 221.116 392.115C221.116 396.393 220.007 400.207 217.788 403.557C215.57 406.856 212.861 409.305 209.663 410.903C206.515 412.449 203.239 413.222 199.834 413.222C196.429 413.222 193.127 412.397 189.928 410.748C186.729 409.047 184.021 406.573 181.802 403.326C179.635 400.027 178.552 396.315 178.552 392.192ZM194.726 397.759C196.377 398.996 198.054 399.614 199.757 399.614C201.459 399.614 203.162 398.97 204.864 397.681C206.567 396.393 207.418 394.486 207.418 391.96C207.418 389.434 206.619 387.553 205.019 386.316C203.42 385.079 201.691 384.46 199.834 384.46C197.977 384.46 196.248 385.104 194.649 386.393C193.05 387.682 192.25 389.589 192.25 392.115C192.25 394.589 193.075 396.47 194.726 397.759Z" fill="#1A0A2E"/>
<path d="M226.116 378.584C226.116 377.398 226.142 376.522 226.194 375.955C226.297 375.337 226.529 374.641 226.89 373.868C227.612 372.528 229.625 371.857 232.927 371.857C235.403 371.857 237.157 372.296 238.189 373.172C239.066 373.893 239.53 375.002 239.582 376.496C239.634 377.012 239.659 377.759 239.659 378.739V405.8C239.659 406.985 239.608 407.887 239.505 408.506C239.453 409.073 239.221 409.743 238.808 410.516C238.137 411.856 236.151 412.526 232.849 412.526C229.599 412.526 227.612 411.83 226.89 410.439C226.529 409.666 226.297 408.995 226.194 408.428C226.142 407.862 226.116 406.959 226.116 405.722V378.584ZM238.808 364.28C238.447 365.002 237.776 365.517 236.796 365.827C235.816 366.136 234.5 366.291 232.849 366.291C231.25 366.291 229.96 366.136 228.98 365.827C227.999 365.517 227.303 364.976 226.89 364.203C226.529 363.43 226.297 362.76 226.194 362.193C226.142 361.574 226.116 360.672 226.116 359.487C226.116 358.301 226.142 357.425 226.194 356.858C226.297 356.239 226.529 355.569 226.89 354.848C227.612 353.456 229.625 352.76 232.927 352.76C236.177 352.76 238.137 353.456 238.808 354.848C239.221 355.621 239.453 356.317 239.505 356.935C239.608 357.502 239.659 358.378 239.659 359.564C239.659 360.749 239.608 361.652 239.505 362.27C239.453 362.837 239.221 363.507 238.808 364.28Z" fill="#1A0A2E"/>
<path d="M268.517 371.78C273.676 371.78 277.958 373.765 281.363 377.734C284.82 381.651 286.548 386.445 286.548 392.115V405.722C286.548 406.908 286.497 407.81 286.394 408.428C286.342 408.995 286.136 409.64 285.775 410.361C285.052 411.753 283.04 412.449 279.738 412.449C276.075 412.449 273.96 411.495 273.392 409.588C273.083 408.712 272.928 407.398 272.928 405.645V392.037C272.928 389.924 272.309 388.274 271.071 387.089C269.884 385.903 268.259 385.311 266.195 385.311C264.183 385.311 262.532 385.929 261.242 387.166C260.004 388.403 259.385 390.027 259.385 392.037V405.722C259.385 406.908 259.333 407.81 259.23 408.428C259.178 408.995 258.946 409.64 258.533 410.361C257.863 411.753 255.876 412.449 252.574 412.449C249.324 412.449 247.338 411.753 246.615 410.361C246.254 409.588 246.022 408.918 245.919 408.351C245.867 407.733 245.842 406.831 245.842 405.645V378.275C245.842 377.141 245.867 376.29 245.919 375.723C246.022 375.105 246.28 374.435 246.693 373.713C247.415 372.424 249.401 371.78 252.652 371.78C255.799 371.78 257.734 372.373 258.456 373.558C258.972 374.435 259.23 375.491 259.23 376.728C259.436 376.368 259.901 375.852 260.623 375.182C261.345 374.512 262.042 373.971 262.712 373.558C264.467 372.373 266.401 371.78 268.517 371.78Z" fill="#1A0A2E"/>
<path d="M336.029 385.465L330.999 385.156V395.826C330.999 397.217 331.205 398.223 331.618 398.841C332.082 399.46 332.908 399.769 334.095 399.769C335.333 399.769 336.261 399.82 336.881 399.924C337.551 399.975 338.248 400.207 338.97 400.619C340.157 401.289 340.75 403.016 340.75 405.8C340.75 409.047 340.028 411.031 338.583 411.753C337.809 412.114 337.113 412.346 336.494 412.449C335.926 412.5 335.075 412.526 333.94 412.526C328.574 412.526 324.498 411.315 321.712 408.892C318.926 406.47 317.533 402.372 317.533 396.599V385.156C316.553 385.311 315.495 385.388 314.36 385.388C313.225 385.388 312.271 384.95 311.497 384.074C310.775 383.197 310.413 381.702 310.413 379.589C310.413 377.476 310.542 375.955 310.8 375.027C311.058 374.048 311.419 373.352 311.884 372.94C312.709 372.27 313.741 371.935 314.979 371.935L317.533 372.244V364.28C317.533 363.095 317.559 362.219 317.611 361.652C317.714 361.085 317.972 360.466 318.384 359.796C319.055 358.507 321.042 357.863 324.344 357.863C327.852 357.863 329.941 358.817 330.612 360.724C330.87 361.548 330.999 362.863 330.999 364.667V372.244C333.269 372.038 334.972 371.935 336.107 371.935C337.293 371.935 338.17 371.986 338.738 372.089C339.357 372.141 340.054 372.373 340.827 372.785C342.169 373.455 342.84 375.44 342.84 378.739C342.84 381.986 342.143 383.97 340.75 384.692C339.976 385.053 339.28 385.285 338.661 385.388C338.093 385.439 337.216 385.465 336.029 385.465Z" fill="#1A0A2E"/>
<path d="M369.711 371.935C374.87 371.935 379.152 373.893 382.557 377.811C386.014 381.728 387.742 386.522 387.742 392.192V405.8C387.742 406.985 387.691 407.887 387.588 408.506C387.536 409.073 387.304 409.743 386.891 410.516C386.22 411.856 384.234 412.526 380.932 412.526C377.785 412.526 375.824 411.856 375.051 410.516C374.638 409.743 374.38 409.047 374.277 408.428C374.225 407.81 374.199 406.882 374.199 405.645V392.115C374.199 390.001 373.606 388.352 372.419 387.166C371.233 385.981 369.711 385.388 367.853 385.388C366.048 385.388 364.448 385.955 363.055 387.089C361.662 388.171 360.862 389.408 360.656 390.8V405.8C360.656 406.985 360.604 407.887 360.501 408.506C360.45 409.073 360.218 409.743 359.805 410.516C359.134 411.856 357.148 412.526 353.846 412.526C350.595 412.526 348.609 411.83 347.887 410.439C347.526 409.666 347.293 408.995 347.19 408.428C347.139 407.862 347.113 406.959 347.113 405.722V359.487C347.113 358.301 347.139 357.425 347.19 356.858C347.293 356.239 347.526 355.569 347.887 354.848C348.609 353.456 350.621 352.76 353.923 352.76C357.174 352.76 359.134 353.456 359.805 354.848C360.218 355.621 360.45 356.317 360.501 356.935C360.604 357.502 360.656 358.378 360.656 359.564V376.651C363.236 373.507 366.254 371.935 369.711 371.935Z" fill="#1A0A2E"/>
<path d="M433.284 387.321C433.284 390.465 432.484 392.81 430.885 394.357C429.337 395.852 427.608 396.599 425.7 396.599H407.358C407.358 398.042 408.209 399.253 409.912 400.233C411.615 401.212 413.317 401.702 415.02 401.702C418.012 401.702 420.36 401.393 422.062 400.774L422.913 400.465C424.152 399.898 425.184 399.614 426.009 399.614C427.66 399.614 429.079 400.774 430.265 403.094C430.936 404.485 431.272 405.671 431.272 406.65C431.272 411.238 425.777 413.531 414.788 413.531C410.97 413.531 407.565 412.887 404.572 411.598C401.631 410.258 399.335 408.506 397.684 406.341C394.434 402.166 392.809 397.501 392.809 392.346C392.809 385.852 394.898 380.672 399.078 376.806C403.308 372.888 408.571 370.93 414.865 370.93C422.036 370.93 427.299 373.455 430.652 378.507C432.407 381.187 433.284 384.125 433.284 387.321ZM416.954 389.563C418.915 389.563 419.895 388.738 419.895 387.089C419.895 385.903 419.431 384.95 418.502 384.228C417.625 383.507 416.335 383.146 414.633 383.146C412.982 383.146 411.331 383.842 409.68 385.233C408.029 386.573 407.203 388.017 407.203 389.563H416.954Z" fill="#1A0A2E"/>
<path d="M451.644 377.192C454.069 373.533 456.984 371.703 460.389 371.703C465.651 371.703 469.572 373.945 472.152 378.429C472.719 377.656 473.39 376.857 474.164 376.033C474.99 375.156 476.279 374.228 478.034 373.249C479.788 372.218 481.593 371.703 483.451 371.703C487.578 371.703 491.035 373.301 493.821 376.496C496.607 379.641 498 384.872 498 392.192V405.722C498 406.908 497.948 407.81 497.845 408.428C497.794 408.995 497.561 409.666 497.149 410.439C496.478 411.83 494.492 412.526 491.19 412.526C487.939 412.526 485.953 411.805 485.231 410.361C484.87 409.588 484.637 408.918 484.534 408.351C484.483 407.733 484.457 406.831 484.457 405.645V392.115C484.457 387.63 482.857 385.388 479.659 385.388C477.853 385.388 476.615 385.981 475.944 387.166C475.325 388.352 475.015 390.027 475.015 392.192V405.722C475.015 406.959 474.964 407.862 474.861 408.428C474.809 408.995 474.577 409.666 474.164 410.439C473.442 411.83 471.43 412.526 468.128 412.526C464.877 412.526 462.891 411.805 462.169 410.361C461.808 409.588 461.575 408.918 461.472 408.351C461.421 407.733 461.395 406.831 461.395 405.645V392.115C461.395 387.63 459.795 385.388 456.597 385.388C453.501 385.388 451.953 387.63 451.953 392.115V405.8C451.953 406.985 451.902 407.887 451.798 408.506C451.747 409.073 451.515 409.743 451.102 410.516C450.328 411.856 448.316 412.526 445.066 412.526C441.815 412.526 439.829 411.83 439.107 410.439C438.745 409.666 438.513 408.995 438.41 408.428C438.359 407.862 438.333 406.959 438.333 405.722V378.507C438.333 377.321 438.359 376.445 438.41 375.878C438.513 375.259 438.771 374.589 439.184 373.868C439.958 372.476 441.789 371.78 444.679 371.78C447.568 371.78 449.451 372.244 450.328 373.172C451.205 374.1 451.644 375.44 451.644 377.192Z" fill="#1A0A2E"/>
<path d="M104.708 73.0745C109.893 74.9301 112.486 77.4043 112.486 80.4969C112.486 81.5021 112.021 83.3963 111.093 86.1798L88.8044 150.546C88.6496 151.088 88.3788 151.745 87.9918 152.518C87.6049 153.291 86.5601 154.335 84.8576 155.649C83.2324 156.886 81.2589 157.505 78.9373 157.505C76.693 157.505 74.7195 156.886 73.017 155.649C71.3918 154.335 70.3083 153.059 69.7666 151.822L56.1848 111.81C47.5945 137.171 43.222 150.082 43.0672 150.546C42.9125 151.01 42.5642 151.667 42.0225 152.518C41.4808 153.368 40.8616 154.142 40.1651 154.837C38.3852 156.616 36.257 157.505 33.7805 157.505C31.304 157.505 29.2532 156.925 27.628 155.765C26.0803 154.606 25.0355 153.446 24.4938 152.286L23.6812 150.546L1.27693 86.1798C0.425642 83.6283 0 81.734 0 80.4969C0 77.4043 2.59255 74.9688 7.77764 73.1905C10.0219 72.4173 12.0341 72.0307 13.814 72.0307C15.6714 72.0307 17.0644 72.6492 17.9931 73.8863C18.9991 75.1234 19.8891 77.0177 20.663 79.5691L33.4323 118.305L46.0854 80.149C47.1689 76.9017 49.1423 74.6595 52.0057 73.4224C53.244 72.8812 54.8304 72.6106 56.7652 72.6106C58.7773 72.6106 60.6347 73.2678 62.3372 74.5822C64.0398 75.8192 65.1232 77.0563 65.5876 78.2934L78.9373 118.537L91.7065 79.5691C92.3256 77.7908 92.8287 76.4764 93.2156 75.626C93.6026 74.7755 94.2991 73.9636 95.3051 73.1905C96.3886 72.34 97.7042 71.9147 99.252 71.9147C100.8 71.9147 102.618 72.3013 104.708 73.0745Z" fill="#EC4899"/>
<path d="M158.806 71.5668C170.26 71.5668 180.204 75.7033 188.64 83.9762C197.075 92.2492 201.293 102.532 201.293 114.826C201.293 127.042 197.268 137.48 189.22 146.139C181.171 154.722 171.266 159.013 159.502 159.013C147.739 159.013 137.717 154.76 129.437 146.255C121.233 137.75 117.132 127.622 117.132 115.87C117.132 109.452 118.293 103.46 120.614 97.8933C122.936 92.2492 126.031 87.5328 129.901 83.7443C133.77 79.9557 138.22 76.979 143.251 74.8141C148.281 72.6492 153.466 71.5668 158.806 71.5668ZM137.679 115.29C137.679 122.171 139.884 127.776 144.295 132.106C148.784 136.359 153.776 138.485 159.27 138.485C164.765 138.485 169.718 136.397 174.129 132.222C178.54 128.047 180.746 122.442 180.746 115.406C180.746 108.37 178.502 102.726 174.013 98.4732C169.602 94.2208 164.649 92.0945 159.154 92.0945C153.66 92.0945 148.707 94.2594 144.295 98.5892C139.884 102.842 137.679 108.408 137.679 115.29Z" fill="#EC4899"/>
<path d="M299.313 75.8579C299.932 77.0177 300.28 78.0614 300.358 78.9893C300.513 79.9171 300.59 81.2701 300.59 83.0484V147.415C300.59 152.75 299.12 155.881 296.179 156.809C294.708 157.273 292.851 157.505 290.607 157.505C288.363 157.505 286.583 157.312 285.267 156.925C283.951 156.538 282.945 156.075 282.249 155.533C281.552 154.992 281.011 154.219 280.624 153.214C280.237 151.899 280.043 149.889 280.043 147.183V108.331C278.108 110.728 275.284 114.555 271.569 119.813C267.854 124.993 265.494 128.24 264.488 129.555C263.482 130.869 262.785 131.797 262.398 132.338C262.011 132.802 261.044 133.498 259.496 134.426C258.026 135.276 256.401 135.701 254.621 135.701C252.918 135.701 251.332 135.315 249.861 134.542C248.468 133.691 247.462 132.879 246.843 132.106L245.914 130.83C244.367 128.898 241.31 124.8 236.744 118.537C232.178 112.197 229.701 108.795 229.314 108.331V147.415C229.314 149.193 229.237 150.546 229.082 151.474C229.005 152.325 228.657 153.291 228.037 154.374C226.877 156.461 223.858 157.505 218.983 157.505C214.262 157.505 211.321 156.461 210.16 154.374C209.541 153.291 209.154 152.286 209 151.358C208.922 150.43 208.884 149.039 208.884 147.183V82.8165C208.884 81.0382 208.922 79.7238 209 78.8733C209.154 77.9455 209.541 76.9017 210.16 75.7419C211.321 73.7317 214.339 72.7266 219.215 72.7266C221.305 72.7266 223.085 72.9972 224.555 73.5384C226.103 74.0023 227.109 74.5049 227.573 75.0461L228.27 75.7419L254.621 110.303C267.777 92.9064 276.561 81.4247 280.972 75.8579C282.287 73.7703 285.383 72.7266 290.259 72.7266C295.211 72.7266 298.23 73.7703 299.313 75.8579Z" fill="#EC4899"/>
<path d="M358.994 78.6413L390.337 143.356C391.652 145.985 392.31 147.956 392.31 149.271C392.31 152.054 390.066 154.567 385.577 156.809C382.946 158.123 380.857 158.781 379.309 158.781C377.838 158.781 376.6 158.433 375.594 157.737C374.665 157.041 373.969 156.307 373.505 155.533C373.118 154.76 372.537 153.6 371.763 152.054L365.727 139.529H333.572L327.535 152.054C326.761 153.6 326.142 154.722 325.678 155.417C325.291 156.113 324.594 156.848 323.588 157.621C322.66 158.317 321.421 158.665 319.874 158.665C318.403 158.665 316.352 158.008 313.721 156.693C309.233 154.528 306.988 152.054 306.988 149.271C306.988 147.956 307.646 145.985 308.962 143.356L340.304 78.5254C341.156 76.7471 342.433 75.3167 344.135 74.2342C345.915 73.1518 347.773 72.6106 349.707 72.6106C353.886 72.6106 356.982 74.6208 358.994 78.6413ZM349.591 106.476L341.93 122.364H357.369L349.591 106.476Z" fill="#EC4899"/>
<path d="M453.562 76.2058C454.336 74.8141 455.458 73.8863 456.928 73.4224C458.399 72.9585 460.217 72.7266 462.384 72.7266C464.629 72.7266 466.408 72.9198 467.724 73.3064C469.117 73.693 470.123 74.1569 470.742 74.6981C471.439 75.2394 471.942 76.0512 472.251 77.1336C472.716 78.3707 472.948 80.3423 472.948 83.0484V147.415C472.948 149.271 472.871 150.624 472.716 151.474C472.638 152.325 472.29 153.33 471.671 154.49C470.588 156.577 467.569 157.621 462.616 157.621C459.598 157.621 457.509 157.389 456.348 156.925C455.187 156.461 454.22 155.727 453.446 154.722C436.033 131.526 424.579 116.372 419.085 109.259V147.415C419.085 149.271 419.007 150.624 418.853 151.474C418.775 152.325 418.427 153.33 417.808 154.49C416.724 156.577 413.706 157.621 408.753 157.621C403.955 157.621 401.014 156.577 399.931 154.49C399.312 153.33 398.925 152.286 398.77 151.358C398.693 150.43 398.654 149.077 398.654 147.299V82.5845C398.654 79.6465 399.002 77.5202 399.699 76.2058C400.473 74.8141 401.595 73.8863 403.065 73.4224C404.536 72.9585 406.432 72.7266 408.753 72.7266C411.075 72.7266 412.894 72.9585 414.209 73.4224C415.602 73.809 416.57 74.2729 417.111 74.8141C417.421 75.0461 418.311 76.0512 419.781 77.8295C436.111 100.02 447.022 114.671 452.517 121.784V82.5845C452.517 79.6465 452.865 77.5202 453.562 76.2058Z" fill="#EC4899"/>
<path d="M104.708 256.703C109.893 258.559 112.486 261.033 112.486 264.125C112.486 265.131 112.021 267.025 111.093 269.808L88.8044 334.175C88.6496 334.716 88.3788 335.373 87.9918 336.147C87.6049 336.92 86.5601 337.963 84.8576 339.278C83.2324 340.515 81.2589 341.133 78.9373 341.133C76.693 341.133 74.7195 340.515 73.017 339.278C71.3918 337.963 70.3083 336.688 69.7666 335.451L56.1848 295.439C47.5945 320.799 43.222 333.711 43.0672 334.175C42.9125 334.639 42.5642 335.296 42.0225 336.147C41.4808 336.997 40.8616 337.77 40.1651 338.466C38.3852 340.244 36.257 341.133 33.7805 341.133C31.304 341.133 29.2532 340.554 27.628 339.394C26.0803 338.234 25.0355 337.074 24.4938 335.915L23.6812 334.175L1.27693 269.808C0.425642 267.257 0 265.363 0 264.125C0 261.033 2.59255 258.597 7.77764 256.819C10.0219 256.046 12.0341 255.659 13.814 255.659C15.6714 255.659 17.0644 256.278 17.9931 257.515C18.9991 258.752 19.8891 260.646 20.663 263.198L33.4323 301.934L46.0854 263.778C47.1689 260.53 49.1423 258.288 52.0057 257.051C53.244 256.51 54.8304 256.239 56.7652 256.239C58.7773 256.239 60.6347 256.896 62.3372 258.211C64.0398 259.448 65.1232 260.685 65.5876 261.922L78.9373 302.166L91.7065 263.198C92.3256 261.419 92.8287 260.105 93.2156 259.254C93.6026 258.404 94.2991 257.592 95.3051 256.819C96.3886 255.968 97.7042 255.543 99.252 255.543C100.8 255.543 102.618 255.93 104.708 256.703Z" fill="#F97316"/>
<path d="M158.806 255.195C170.26 255.195 180.204 259.332 188.64 267.605C197.075 275.878 201.293 286.161 201.293 298.454C201.293 310.67 197.268 321.108 189.22 329.768C181.171 338.35 171.266 342.641 159.502 342.641C147.739 342.641 137.717 338.389 129.437 329.884C121.233 321.379 117.132 311.25 117.132 299.498C117.132 293.081 118.293 287.089 120.614 281.522C122.936 275.878 126.031 271.161 129.901 267.373C133.77 263.584 138.22 260.608 143.251 258.443C148.281 256.278 153.466 255.195 158.806 255.195ZM137.679 298.918C137.679 305.799 139.884 311.405 144.295 315.735C148.784 319.987 153.776 322.113 159.27 322.113C164.765 322.113 169.718 320.026 174.129 315.851C178.54 311.676 180.746 306.07 180.746 299.034C180.746 291.998 178.502 286.354 174.013 282.102C169.602 277.849 164.649 275.723 159.154 275.723C153.66 275.723 148.707 277.888 144.295 282.218C139.884 286.47 137.679 292.037 137.679 298.918Z" fill="#F97316"/>
<path d="M274.007 326.868C275.168 329.652 275.748 331.662 275.748 332.899C275.748 335.837 273.349 338.311 268.551 340.322C266.074 341.404 264.062 341.945 262.514 341.945C261.044 341.945 259.806 341.597 258.8 340.901C257.871 340.128 257.175 339.355 256.71 338.582C255.936 337.113 252.918 330.116 247.656 317.59L244.057 317.822H229.43V330.928C229.43 332.706 229.353 334.059 229.198 334.987C229.121 335.837 228.773 336.842 228.154 338.002C227.07 340.09 224.052 341.133 219.099 341.133C213.682 341.133 210.509 339.703 209.58 336.842C209.116 335.528 208.884 333.518 208.884 330.812V266.445C208.884 264.667 208.922 263.352 209 262.502C209.154 261.574 209.541 260.53 210.16 259.37C211.244 257.283 214.262 256.239 219.215 256.239H244.289C251.1 256.239 257.716 258.713 264.14 263.662C267.235 266.058 269.789 269.306 271.801 273.404C273.813 277.501 274.819 282.063 274.819 287.089C274.819 295.826 271.917 303.016 266.113 308.66C267.816 312.758 270.447 318.827 274.007 326.868ZM229.43 297.295H244.289C246.534 297.295 248.778 296.444 251.022 294.743C253.266 293.042 254.389 290.491 254.389 287.089C254.389 283.687 253.266 281.135 251.022 279.434C248.778 277.656 246.456 276.767 244.057 276.767H229.43V297.295Z" fill="#F97316"/>
<path d="M302.663 324.085H334.238C336.792 324.085 338.649 324.394 339.81 325.013C340.971 325.554 341.745 326.443 342.132 327.68C342.519 328.917 342.712 330.58 342.712 332.667C342.712 334.677 342.519 336.301 342.132 337.538C341.745 338.775 341.087 339.626 340.158 340.09C338.688 340.863 336.676 341.249 334.122 341.249H292.332C286.914 341.249 283.742 339.78 282.813 336.842C282.348 335.605 282.116 333.634 282.116 330.928V266.445C282.116 264.667 282.155 263.352 282.232 262.502C282.387 261.574 282.774 260.53 283.393 259.37C284.477 257.283 287.495 256.239 292.448 256.239C297.865 256.239 301.077 257.669 302.083 260.53C302.47 261.845 302.663 263.855 302.663 266.561V324.085Z" fill="#F97316"/>
<path d="M360.579 256.123L382.055 256.239C393.276 256.239 403.143 260.298 411.656 268.417C420.169 276.458 424.426 286.393 424.426 298.222C424.426 309.975 420.247 320.065 411.889 328.492C403.608 336.92 393.547 341.133 381.707 341.133H360.463C355.742 341.133 352.802 340.167 351.641 338.234C350.712 336.61 350.248 334.136 350.248 330.812V266.329C350.248 264.473 350.287 263.12 350.364 262.27C350.519 261.419 350.906 260.414 351.525 259.254C352.608 257.167 355.626 256.123 360.579 256.123ZM382.055 320.606C387.627 320.606 392.657 318.557 397.146 314.459C401.634 310.284 403.879 305.065 403.879 298.802C403.879 292.54 401.673 287.321 397.262 283.146C392.928 278.893 387.82 276.767 381.939 276.767H370.795V320.606H382.055Z" fill="#F97316"/>
<path d="M425.853 323.041C426.55 321.804 427.672 320.954 429.22 320.49C430.767 319.949 433.244 319.678 436.649 319.678C440.054 319.678 442.492 320.451 443.962 321.997C445.51 323.466 446.284 326.366 446.284 330.696C446.284 332.319 446.168 333.827 445.936 335.219C445.239 341.791 443.072 347.512 439.435 352.383C435.798 357.254 431.541 359.69 426.666 359.69C426.124 359.69 425.621 359.264 425.157 358.414C424.77 357.641 424.576 356.597 424.576 355.283C424.576 354.045 424.731 353.04 425.04 352.267C425.427 351.494 425.892 350.991 426.434 350.759C426.975 350.605 427.517 350.296 428.059 349.832C428.678 349.445 429.49 348.44 430.496 346.816C431.502 345.193 432.083 343.337 432.238 341.249C429.761 340.94 427.827 340.128 426.434 338.814C425.118 337.422 424.46 335.219 424.46 332.203C424.537 329.111 424.615 327.139 424.692 326.289C424.847 325.361 425.234 324.278 425.853 323.041Z" fill="#F97316"/>
</svg>
